<?xml version="1.0" encoding="UTF-8" standalone="no"?>
<!-- Created with Inkscape (http://www.inkscape.org/) -->

<svg
   width="166.69096mm"
   height="116.71479mm"
   viewBox="0 0 166.69096 116.71479"
   version="1.1"
   id="svg1"
   xml:space="preserve"
   xmlns="http://www.w3.org/2000/svg"
   xmlns:svg="http://www.w3.org/2000/svg"><defs
     id="defs1" /><g
     id="layer1"
     transform="translate(-16.970271,-29.740562)"><path
       style="fill:#422774;stroke:none"
       d="m 99.417649,29.803294 c -8.70485,1.12191 -7.149039,15.33604 1.517971,14.18324 8.69711,-1.15681 7.14532,-15.29978 -1.517971,-14.18324 m -11.005273,14.3068 c -4.278923,-3.29406 -4.385336,-8.35653 0,-11.61649 -6.354995,-3.45494 -11.569428,6.99578 -5.685967,11.06638 0.797156,0.55153 1.704472,0.92007 2.650018,1.05246 1.072759,0.1502 2.068393,-0.002 3.035949,-0.50235 m 23.528514,-11.81678 c 0.92854,1.07048 2.04202,1.89749 2.70795,3.20556 1.71264,3.36406 -0.0211,6.63435 -2.70795,8.61122 3.00174,1.81207 6.89624,-0.36663 8.00003,-3.60513 1.17441,-3.44569 -0.74167,-7.23274 -4.01537,-8.28295 -1.35202,-0.43373 -2.6336,-0.23078 -3.98466,0.0713 m -35.862011,12.81819 v -0.20028 c -5.775848,-1.74623 -5.572604,-9.36603 0,-11.21593 -3.894184,-0.83402 -6.967077,3.62474 -5.802375,7.41044 0.853331,2.77363 3.216488,3.94645 5.802375,4.00577 m 48.195511,-11.61649 v 0.20028 c 5.57259,1.8499 5.77586,9.4697 0,11.21593 3.91818,0.8815 6.97011,-3.61908 5.80239,-7.41033 -0.84908,-2.75672 -3.23723,-3.91407 -5.80239,-4.00588 m -99.047466,29.64208 h 0.189746 c 0.861818,1.81296 2.638539,3.51826 2.784616,5.60796 0.349447,4.999 -2.197022,9.83535 1.579544,14.22019 0.671031,-1.92622 1.70005,-3.32892 3.035938,-4.80683 0.974194,1.55092 2.212096,2.77581 3.794922,3.60512 v 0.20029 c -1.233781,0.26716 -2.09498,0.71227 -2.846192,1.80255 2.775619,0.45803 4.202702,3.06739 7.210352,2.6037 -1.378809,2.52583 -0.949269,5.02221 -0.94873,7.81109 2.200462,-1.16514 4.637962,-2.00776 5.882129,-4.40626 h 0.189746 c 1.352011,6.34264 6.446999,9.40454 11.764258,12.017056 1.801581,-3.592306 2.53262,-7.175746 0.948731,-11.015626 2.202318,-0.69091 4.144037,-1.99418 5.878354,-3.56943 0.612998,-0.55677 1.50172,-1.29346 1.484557,-2.24059 -0.0305,-1.68354 -2.263392,-3.44515 -3.378243,-4.40448 v -0.20029 c 1.252824,-1.58587 1.78572,-3.69924 2.926252,-5.40758 0.413617,-0.61953 1.025688,-1.46978 0.822044,-2.28417 -0.277722,-1.11062 -2.098904,-1.40935 -2.989317,-1.56961 -3.312549,-0.59624 -6.198348,0.38423 -8.728315,2.65198 v -7.41052 l 4.174414,-0.40057 c -0.73094,1.63622 -0.704402,3.04197 -0.569238,4.80682 4.276039,-0.95817 8.867943,-3.73977 9.297559,-8.81251 2.234966,0.94786 4.456954,1.9061 6.83086,2.39777 1.933773,0.40051 4.135455,0.29547 5.879963,1.3749 3.221798,1.99352 3.626792,6.83194 4.630788,10.24724 0.523707,1.78149 1.158958,3.31107 1.063761,5.20739 h 0.189746 l 0.189746,-0.60085 h 0.379492 l 0.189746,2.20312 c 1.140822,0.68734 1.569836,1.67808 1.138477,3.00427 l 0.569238,-0.20029 c 2.533789,12.51013 -3.057484,24.276156 -1.269726,36.852306 0.679028,4.7767 1.99893,9.63262 4.323933,13.81962 1.908885,3.43762 5.017404,5.9654 5.104874,10.2145 1.29223,-0.54073 0.79951,-3.59144 0.61582,-4.80682 -0.71165,-4.70888 -2.5567,-9.23111 -3.759459,-13.81962 -1.06672,-4.06951 -2.524254,-10.44122 -0.50963,-14.41486 1.06321,-2.09707 4.402789,-1.70494 4.714659,-4.41186 0.11415,-0.99075 -0.17681,-1.99751 -0.0734,-3.00427 0.13838,-1.3475 0.76867,-2.63876 0.36644,-4.00568 -0.42239,-1.43542 -1.9195,-2.444306 -1.99854,-4.005686 -0.0841,-1.66049 1.34989,-3.09488 1.35878,-4.80682 0.005,-0.88441 -0.45133,-1.72984 -0.3914,-2.6037 0.10472,-1.52706 1.22653,-4.63226 2.14345,-5.80824 l -1.32822,8.81251 h 0.18974 l 1.51797,-8.81251 h 0.18975 l 0.189741,10.41478 h 0.3795 l 0.18974,-10.41478 1.70772,8.41194 h 0.18974 l -1.32822,-8.41194 c 1.00358,1.40677 2.03225,4.02939 2.05544,5.80824 0.0142,1.09054 -0.38905,2.09941 -0.22833,3.20455 0.21621,1.48677 1.27016,2.86119 1.0669,4.40626 -0.25403,1.930896 -1.99684,3.124846 -1.875,5.207386 0.0989,1.6908 -0.0185,5.12142 0.72907,6.56281 0.77821,1.50056 2.57741,1.62295 3.66756,2.75435 1.71259,1.77738 1.46053,4.98708 1.40631,7.30643 -0.12083,5.16929 -1.87593,10.34428 -3.34999,15.22161 -1.10972,3.67183 -2.26446,7.31021 -1.5745,11.21592 h 0.37949 c 0.83124,-4.3676 3.42941,-6.87031 5.48565,-10.61507 2.01098,-3.66232 3.26602,-8.05178 3.90177,-12.21734 0.7979,-5.22799 0.85955,-10.38081 0.096,-15.62217 -0.47937,-3.29074 -1.54182,-6.50597 -1.85774,-9.813926 -0.40842,-4.27661 0.19035,-8.36763 0.53339,-12.61792 l 0.94873,0.20029 v -0.20029 l -0.75899,-0.40057 1.89746,-4.80682 h 0.3795 l 0.18974,0.80114 h 0.18975 c -0.52257,-2.33564 -2.45005,-4.33584 -3.98467,-6.00853 1.72732,0.74116 2.80704,2.92412 3.60518,4.60654 h 0.18974 c 1.38692,-4.08815 1.85452,-10.59444 5.14125,-13.50078 1.77494,-1.56953 4.09468,-1.41749 6.24352,-1.85342 2.50252,-0.50766 4.85188,-1.48307 7.21035,-2.47111 0.41277,5.10795 4.99704,7.84911 9.29756,8.81251 0.0994,-1.75803 0.11355,-3.16161 -0.56924,-4.80682 l 4.17442,0.40057 v 7.41052 c -3.63317,-3.11298 -7.93108,-3.62203 -12.14376,-1.40199 0.80287,2.66914 3.24714,4.7109 3.50606,7.6108 0.18028,2.0192 -2.49249,2.89944 -2.73037,4.80639 -0.12903,1.0343 0.84499,1.86082 1.50479,2.45682 1.73683,1.56887 3.66763,2.8931 5.87861,3.55215 -1.65296,3.83093 -0.85252,7.43815 0.94873,11.015626 3.09228,-1.68233 7.71141,-3.836106 9.81471,-6.819976 1.09996,-1.56047 1.48753,-3.35621 1.94955,-5.19708 1.53879,2.29027 3.74889,3.22169 6.07187,4.40626 6e-5,-2.7778 0.3111,-5.26548 -0.94873,-7.81109 3.01495,0.52289 4.42314,-2.24512 7.21035,-2.6037 l -2.84619,-2.00284 c 1.5838,-0.86038 2.78933,-2.05843 3.79492,-3.60512 h 0.18975 l 2.65645,4.80683 c 4.22721,-3.75884 1.43643,-9.54226 1.75505,-14.22019 0.13568,-1.99193 1.78583,-3.80909 2.79885,-5.40768 0.62565,3.45976 1.69629,6.28806 4.18418,8.77285 0.64094,0.64014 2.33963,2.41105 3.27616,1.41402 0.78655,-0.83736 0.84937,-2.67684 0.87874,-3.77777 0.0837,-3.13872 -0.68861,-5.915 -2.86375,-8.1697 -1.28088,-1.32773 -2.98057,-2.21792 -3.95621,-3.85761 -0.68484,-1.15095 -0.83021,-2.55761 -1.3353,-3.79515 -1.02893,-2.52101 -3.50358,-6.6181 -5.68863,-8.13618 -3.1516,-2.1896 -8.13269,-0.0298 -11.36869,0.97852 -1.60137,0.49897 -3.30076,0.0372 -4.9473,0.33802 -3.47287,0.6344 -6.63575,1.98821 -9.8668,3.41481 l 0.56924,-2.20313 c -3.4604,0.99965 -6.40198,0.005 -9.67705,2.20313 l 0.37949,-1.40199 c -2.94142,0.33722 -5.71378,1.99828 -7.75513,4.21641 -1.30609,1.41921 -2.21129,4.23021 -4.39078,4.06445 -3.4792,-0.26461 -6.35965,-3.21225 -9.10565,-5.17196 -4.27921,-3.05388 -9.89228,-5.75564 -15.179691,-4.97728 -4.447039,0.65466 -8.692801,2.93936 -12.333496,5.63231 -2.454284,1.8154 -5.463701,4.76009 -8.715483,4.50387 -1.746141,-0.13758 -2.751174,-2.84964 -3.841809,-4.05151 -2.060153,-2.27028 -4.935164,-3.94947 -7.935287,-4.21629 l 0.569238,1.40199 c -3.252963,-2.17039 -6.236762,-1.20882 -9.677051,-2.20313 l 0.758984,2.40341 c -3.229497,-1.69338 -6.667325,-3.07032 -10.246289,-3.65887 -1.516255,-0.24934 -3.112811,0.22026 -4.58394,-0.22186 -3.316561,-0.99674 -8.266058,-3.24787 -11.534573,-1.09866 -2.310517,1.51927 -4.744321,5.77163 -5.804004,8.38423 -0.478614,1.17999 -0.616602,2.51588 -1.288354,3.60316 -0.989075,1.60087 -2.638278,2.51246 -3.897812,3.83595 -2.197216,2.30877 -3.238948,5.33358 -2.908799,8.58363 0.103205,1.01596 0.179827,2.41286 0.80449,3.2478 0.911724,1.21864 2.714157,-0.60982 3.396936,-1.2883 2.402738,-2.38762 3.952444,-5.47181 3.995254,-8.96945 m 9.487305,-17.62502 v 0.20028 h -1.897461 l 1.897461,-0.20028 m 133.201761,0 v 0.20028 h -2.0872 l 2.0872,-0.20028 m -135.288968,0.20028 v 0.20029 h -0.569239 l 0.569239,-0.20029 m 136.047958,0 v 0.20029 h -0.56924 l 0.56924,-0.20029 m -134.909482,0.20029 v 0.20028 l -3.605176,1.80256 c 0.920951,-1.33929 2.108294,-1.73853 3.605176,-2.00284 m 133.391512,0 3.41543,1.2017 v 0.80114 l -3.60518,-1.80256 0.18975,-0.20028 m -135.668465,0.20028 -0.189746,0.20029 0.189746,-0.20029 m 29.979884,7.61081 v 0.20028 c -8.09758,1.29104 -16.04215,-4.92253 -23.528516,-7.21023 2.228005,-0.74337 5.337541,1.19702 7.400098,2.03511 5.183688,2.10634 10.470258,4.96266 16.128418,4.97484 m 101.324421,-7.21024 v 0.20029 c -7.65915,2.18449 -15.45611,8.52848 -23.71826,7.21023 1.55909,-0.37815 3.17293,-0.34162 4.74365,-0.74813 3.05423,-0.79045 5.99961,-2.14363 8.91807,-3.35874 3.00081,-1.24939 6.77009,-3.54345 10.05654,-3.30365 m 2.4667,0.60085 2.65644,6.60939 h 0.18975 l -2.08721,-6.20882 1.51797,2.20313 h 0.18975 l -0.94873,-2.20313 0.94873,1.60228 h 0.18974 l -0.37949,-1.60228 c 2.18348,2.42314 2.27631,7.2131 2.4667,10.41479 -2.34987,-2.04742 -3.43272,-4.76075 -4.17441,-7.81109 h 0.18974 l 0.37949,1.20171 h 0.18975 l -1.32822,-4.20598 m -129.786337,0.20029 -1.328222,4.00569 h 0.189746 l 0.189746,-0.80114 h 0.189746 c -0.581801,2.89279 -1.758507,5.74642 -4.174414,7.41052 0.659037,-3.25393 0.303612,-7.59432 2.466699,-10.2145 l -0.189746,1.40199 0.379492,-0.80114 h 0.189746 l -0.379492,1.40199 h 0.189746 l 1.517969,-2.20313 -2.087207,6.20882 h 0.189746 c 0.69322,-2.15339 1.185687,-4.6939 2.656445,-6.4091 m 0.758985,0 -0.948731,2.00284 h -0.189746 l 1.138477,-2.00284 m 3.225683,0.40057 v 0.20028 l -3.605176,1.40199 c 0.863679,-1.78411 1.833322,-1.95897 3.605176,-1.60227 m 125.422179,1.60227 -3.60518,-1.40199 c 1.70219,-0.78637 2.75035,-0.30451 3.60518,1.40199 m -0.18975,-2.00284 0.75898,1.60227 h -0.18974 l -0.56924,-1.60227 m -116.314362,0.60085 v 0.20029 l -3.794922,-0.40057 3.794922,0.20028 m 107.775792,-0.40057 v 0.20029 l -3.79493,0.40057 3.79493,-0.60086 m -126.181164,0.20029 -0.379492,0.80113 h -0.189746 l 0.569238,-0.80113 m 2.087207,0 -4.36416,3.8054 c 0.667829,-1.8549 2.692511,-3.10352 4.36416,-3.8054 m 82.349807,6.4091 2.65645,1.40199 v 0.20028 l -1.32822,-0.60085 v 0.20028 l 3.41542,2.00284 v 0.20029 l -0.75898,-0.20029 v 0.20029 l 1.13848,0.40057 v 0.20028 l -2.08721,-0.80114 0.18975,0.40057 h -0.18975 c -3.06169,-1.25036 -5.83708,-3.13319 -8.91807,-4.32218 -4.17412,-1.61085 -8.937381,-1.91707 -13.282221,-0.93617 -4.996201,1.12794 -9.059152,4.50708 -14.041215,5.65892 v -0.20028 l 0.948731,-0.40057 v -0.20029 l -1.138477,0.40057 v -0.20028 l 3.605176,-2.00284 v -0.20029 l -0.94873,0.40057 c 6.793035,-6.75731 16.389336,-10.01725 25.046486,-5.64845 1.87899,0.94822 4.65008,2.03577 5.69238,4.04618 m 54.45713,-6.4091 c 1.98296,1.052 3.61724,2.52223 4.9334,4.40625 l -4.9334,-4.40625 m 2.08721,0 0.37949,0.80113 h -0.18974 l -0.18975,-0.80113 m -137.376178,0.20028 -0.189746,0.20029 0.189746,-0.20029 m 15.748927,0.20029 v 0.20028 h -0.758985 l 0.758985,-0.20028 m 102.842391,0 v 0.20028 h -0.75899 l 0.75899,-0.20028 m -105.498837,0.20028 0.758985,0.20028 v 0.20029 l -0.948731,-0.20029 0.189746,-0.20028 m 107.775787,0 v 0.20028 l -2.08721,0.20029 2.08721,-0.40057 m -106.257818,0.26704 c 0.146737,0 0.0304,0.0997 -0.06325,0.0668 l 0.06325,-0.0668 m -9.107813,0.13353 -0.189746,0.20028 0.189746,-0.20028 m 2.656446,0 v 0.20028 h -0.948731 l 0.948731,-0.20028 m 118.211825,0 v 0.20028 h -0.94873 l 0.94873,-0.20028 m 1.70771,0.0668 c 0.14674,0 0.0304,0.0997 -0.0632,0.0668 l 0.0632,-0.0668 m -123.145219,0.13352 -0.189746,0.20029 0.189746,-0.20029 m 2.087207,0 v 0.20029 h -0.94873 l 0.94873,-0.20029 m 14.230958,2.80398 v 0.20029 l -7.020606,-2.80398 c 2.52878,-0.39926 5.024948,1.1531 7.020606,2.60369 m 98.288484,-2.80398 v 0.20029 c -2.75858,0.52944 -4.71349,1.49226 -7.21035,2.80398 1.9839,-1.98778 4.52752,-2.82602 7.21035,-3.00427 m 7.96933,0 v 0.20029 h -0.94873 l 0.94873,-0.20029 m 1.32823,0 -0.18975,0.20029 0.18975,-0.20029 m -124.283701,0.20029 v 0.20028 l -2.276954,1.00142 2.276954,-1.2017 m 1.138476,0.0668 c 0.146748,0 0.03039,0.0997 -0.06325,0.0668 l 0.06325,-0.0668 m 3.41543,-0.0668 v 0.20028 l -3.605176,0.60085 v 0.20029 l 4.933399,-0.40057 v 0.20028 c -3.578473,0.0265 -6.307605,1.08511 -9.107813,3.40484 l 0.189746,-0.60085 -0.379492,0.20028 v -0.20028 c 0.631316,-1.65768 1.686139,-2.37547 3.225684,-3.00427 v 0.20028 l -1.328223,1.00143 c 2.02318,-0.99661 3.837833,-1.60581 6.071875,-1.80256 m 15.179688,0 5.123145,0.40057 v 0.20028 h -0.379492 v 0.20028 h 1.328223 l 0.379492,0.60086 -0.189746,-0.40057 h 0.189746 c 1.175421,0.69294 1.969062,1.37915 2.276953,2.80398 h -0.189746 l -0.189746,-0.60085 h -0.189746 l 0.758984,2.40341 -4.174414,-3.60512 v 0.20029 l 2.087207,1.80255 -2.466699,-1.40199 v 0.20029 l 3.41543,2.80398 -3.605176,-2.00284 v 0.20028 l 1.328222,1.00142 c -2.324019,-0.99259 -4.75087,-1.89659 -5.882129,-4.40625 l 0.379492,0.20028 v -0.60085 m 85.195997,0 -0.37949,0.60085 0.56924,-0.20028 c -1.14643,2.52438 -3.67776,3.53442 -6.07188,4.40625 v -0.20028 l 1.51797,-0.80114 v -0.20028 l -3.79492,2.00284 v -0.20029 l 3.60518,-2.60369 v -0.20029 l -2.4667,1.20171 v -0.20028 l 2.4667,-1.60228 v -0.20028 l -4.55391,3.8054 c 0.44664,-2.94556 1.07725,-4.49788 4.17442,-4.80683 v -0.20028 h -0.3795 v -0.20028 l 5.31289,-0.40057 m 21.06182,1.80256 -2.27695,-1.40199 v -0.20029 c 1.94223,0.72881 3.45402,1.45765 4.17441,3.60512 l -0.37949,-0.20028 0.18975,0.60085 c -2.80651,-2.29436 -5.53382,-3.37833 -9.10782,-3.40484 v -0.20028 l 4.74366,0.40057 v -0.20029 l -3.41543,-0.60085 c 2.17783,-0.35245 4.1452,0.68866 6.07187,1.60228 m -2.65644,-1.73581 c 0.14675,0 0.0304,0.0997 -0.0633,0.0668 l 0.0633,-0.0668 m 1.32822,-0.0668 0.56924,0.20029 v 0.20028 l -0.75899,-0.20028 0.18975,-0.20029 m 2.84619,0 -0.18975,0.20029 0.18975,-0.20029 m -126.940143,0.26706 c 0.146739,0 0.0304,0.0997 -0.06325,0.0668 l 0.06325,-0.0668 m -3.668424,0.26705 -0.06325,0.13352 0.06325,-0.13352 m 3.288932,-0.13352 -0.189746,0.20028 0.189746,-0.20028 m 14.041211,0 -0.189746,0.20028 0.189746,-0.20028 m 95.062794,0.0668 c 0.14674,0 0.0304,0.0997 -0.0632,0.0668 l 0.0632,-0.0668 m 1.32823,-0.0668 v 0.20028 l -1.13848,0.40057 1.13848,-0.60085 m 14.98994,0 0.75898,0.40056 v 0.20029 l -0.94873,-0.40057 0.18975,-0.20028 m 2.02396,0.13352 -0.0632,0.13352 0.0632,-0.13352 m -134.656487,0.0668 -0.948731,7.41052 h -0.189746 c -0.40988,-2.20874 -1.48001,-5.11919 0.189746,-7.00995 l -0.379492,2.40341 h 0.189746 l 1.138477,-2.80398 m 21.631056,0 -0.189746,0.20029 0.189746,-0.20029 m 1.138476,0 5.312891,2.80398 v 0.20029 l -5.502637,-2.80398 0.189746,-0.20029 m 3.984668,0 0.189747,0.20029 -0.189747,-0.20029 m 5.692384,0 -0.189747,0.20029 0.189747,-0.20029 m 73.811233,0 -0.18975,0.20029 0.18975,-0.20029 m 9.67705,0 -0.18974,0.20029 0.18974,-0.20029 m 22.76953,0 0.94874,3.00427 h 0.18974 l -0.37949,-2.6037 c 1.64498,1.95903 0.57218,4.74641 0.18975,7.00995 h -0.18975 l -0.75899,-7.41052 m -119.540041,0.20029 1.707715,0.60085 v 0.20029 l -1.897461,-0.60086 0.189746,-0.20028 m 2.846192,0 -0.189746,0.20028 0.189746,-0.20028 m 22.769532,8.81251 c -1.372057,-0.87473 -2.381907,-1.96913 -3.225683,-3.40484 h -0.189747 l 2.087208,3.20455 -2.4667,-2.00284 1.138477,1.80256 c -1.644632,-1.25778 -2.825386,-2.93744 -3.794922,-4.80683 H 69.24802 l 3.035937,5.00711 c -2.794059,-2.06593 -3.846024,-5.7121 -5.692383,-8.61223 4.182087,1.0269 8.107876,4.36026 9.297559,8.81251 m 58.062307,-8.81251 c -1.52428,3.00977 -2.82976,6.54141 -5.50264,8.61223 l 2.65645,-4.40625 h -0.18975 l -3.41543,4.20597 1.32823,-2.20313 h -0.18975 l -2.27695,2.20313 1.51797,-2.40342 -3.03594,2.80398 c 1.01935,-4.48763 5.10931,-7.5768 9.10781,-8.81251 m 12.71299,0 v 0.20029 l -5.12314,2.6037 v -0.20029 l 5.12314,-2.6037 m 3.98467,0 v 0.20029 l -2.27696,0.80114 2.27696,-1.00143 m -115.745125,0.20029 -0.189746,0.20028 0.189746,-0.20028 m 18.595118,0 4.174414,2.40341 v 0.20029 l -4.36416,-2.40342 0.189746,-0.20028 m 82.349807,0.60085 v 0.20029 l 1.13848,-0.60086 -1.13848,0.40057 m 11.57451,-0.60085 v 0.20028 l -4.36416,2.40342 v -0.20029 l 4.36416,-2.40341 m 17.45665,0 -0.18975,0.20028 0.18975,-0.20028 m -121.627256,0.40057 v 0.20028 c -1.241851,0.40016 -2.593218,0.9703 -3.515527,1.97541 -1.205731,1.31398 0.466925,2.13972 1.618233,2.15981 2.541859,0.0443 4.615336,-2.18801 7.210184,-2.33266 v 0.20029 c -2.495771,0.7749 -4.253088,2.29466 -6.071875,4.20597 1.763858,0.50904 3.419588,0.43785 4.933399,-0.76029 1.201629,-0.95104 2.339025,-2.75795 3.984668,-2.81172 1.290497,-0.0422 2.402372,1.1694 3.41543,1.85826 1.577829,1.07288 3.341669,1.89952 5.123145,2.51488 v 0.20029 c -4.702896,1.00625 -6.636817,4.45687 -10.056544,7.6108 l 4.174414,0.80114 v 0.20028 c -2.719586,0.87458 -4.877134,2.57399 -6.261621,5.2074 -2.174917,-2.2367 -4.342365,-3.57301 -7.210352,-4.60654 v -0.20029 c 3.949218,-2.15631 4.000801,-7.1341 0.948731,-10.2145 0.663219,1.12823 1.135138,2.25415 1.154117,3.60512 0.04627,3.29362 -3.365857,6.40352 -6.465115,4.99886 -1.754665,-0.79526 -2.661661,-2.68831 -2.901797,-4.59829 -0.17152,-1.36424 0.112136,-2.69087 0.433204,-4.00569 h 0.189746 l 2.656446,5.20739 c 1.898987,-3.28014 -1.366693,-4.30731 -1.37193,-7.20678 -0.0059,-3.25583 5.828841,-4.13908 8.013044,-4.20942 m 17.836133,0 v 0.20028 l 1.517969,0.40057 v -0.20028 l -1.517969,-0.40057 m 3.225684,0 0.189746,0.20028 -0.189746,-0.20028 m 74.886469,0.0668 0.12649,0.0668 -0.12649,-0.0668 m 4.4274,-0.0668 -0.18974,0.20028 0.18974,-0.20028 m 20.11309,11.4162 h 0.37949 l 2.65645,-5.20739 h 0.18974 c 0.30568,1.38742 0.47441,2.77996 0.31993,4.20597 -0.64001,5.90815 -8.54708,6.10506 -9.29204,0.20029 -0.20235,-1.60387 0.4108,-3.07732 1.19252,-4.40626 -3.12166,3.12278 -3.07509,8.01892 0.94873,10.2145 v 0.20029 c -2.87511,1.03568 -5.11537,2.24337 -7.21035,4.60654 -1.49829,-2.67162 -3.50379,-4.20017 -6.26162,-5.2074 v -0.20028 l 4.17441,-0.80114 v -0.20028 c -2.10371,-1.47216 -3.35074,-3.81896 -5.31825,-5.43687 -1.3988,-1.15025 -3.034,-1.609 -4.73829,-1.97365 v -0.20029 c 1.84946,-0.67286 3.66461,-1.53873 5.31289,-2.65672 0.9619,-0.65244 1.99997,-1.76227 3.22566,-1.71274 1.67604,0.0677 2.74533,1.94059 3.99859,2.86599 1.5589,1.15107 3.14105,1.138 4.9195,0.70234 -1.79684,-1.88139 -3.61922,-3.41731 -6.07187,-4.20597 v -0.20029 c 2.59917,0.1449 4.65789,2.33842 7.21018,2.32301 0.9757,-0.006 2.77695,-0.69453 1.75706,-1.97346 -0.8778,-1.10075 -2.38732,-1.74104 -3.65435,-2.15211 2.1418,-0.43493 8.00514,0.9561 7.98221,4.01524 -0.009,1.1946 -1.17237,2.17728 -1.64147,3.195 -0.6043,1.31105 -0.40709,2.65038 -0.0791,4.00568 m -111.380984,-11.21592 -0.189746,0.20029 0.189746,-0.20029 m 12.333497,0 0.189746,0.20029 -0.189746,-0.20029 m 73.937737,0.0668 0.12649,0.0668 -0.12649,-0.0668 m 32.88932,-0.0668 -0.18975,0.20029 0.18975,-0.20029 m -142.309578,0.20029 v 0.80113 h -0.189746 l 0.189746,-0.80113 m 15.938673,0 v 0.20028 l -2.087208,1.00142 c 1.6784,-0.60737 3.19273,-0.84754 4.933399,-0.40057 v 0.20029 c -3.082844,0.35788 -5.3513,3.1357 -8.538575,1.80256 1.561943,-1.58599 3.538886,-2.56402 5.692384,-2.80398 m 1.328222,0 -0.189746,0.20028 0.189746,-0.20028 m 114.796393,2.80398 c -3.22624,1.35296 -5.43359,-1.40812 -8.53857,-1.80256 v -0.20029 c 1.68148,-0.43177 3.13403,-0.24341 4.74365,0.40057 l -1.70772,-1.00142 c 2.01259,-0.18423 4.10632,1.18588 5.50264,2.6037 m -132.822273,-2.20313 1.138477,8.41194 0.948731,-0.80114 c -0.535865,2.40708 -1.731153,4.23863 -1.328223,6.80967 -3.852964,-4.03075 -4.979116,-10.18978 -0.758985,-14.42047 m 33.52181,0.0668 0.126501,0.0668 -0.126501,-0.0668 m 76.657433,0 0.12649,0.0668 -0.12649,-0.0668 m -111.317719,0.13352 -0.379492,0.40057 0.379492,-0.40057 m 7.77959,1.00143 0.948731,-0.80114 -0.948731,0.80114 m 129.596589,-1.00143 0.94873,1.00143 -0.94873,-1.00143 m 7.77959,0 c 3.77344,4.53146 2.89469,10.04182 -0.94873,14.22019 0.34957,-2.56138 -0.86986,-4.39036 -1.32822,-6.80967 h 0.18974 l 0.3795,0.80114 h 0.18974 l 1.51797,-8.21166 m -105.309087,0.20029 1.897461,4.00568 h -0.189747 l -1.328222,-1.80255 0.758984,1.60227 c -1.014454,-1.03663 -1.184992,-2.36472 -1.138476,-3.8054 m 1.138476,0 0.189746,0.20028 -0.189746,-0.20028 m 1.897461,0 1.138477,2.00284 -1.138477,-2.00284 m 60.14951,0 -0.94873,2.00284 h 0.18975 l 0.75898,-2.00284 m 1.89747,0 0.18974,0.20028 -0.18974,-0.20028 m 1.32822,0.20028 c -0.006,1.15941 0.0332,2.89628 -1.13848,3.40484 l 0.56924,-1.40199 h -0.18975 l -1.13847,1.60227 1.89746,-3.60512 m -65.082915,0.20029 0.379492,0.40057 -0.379492,-0.40057 m 63.564945,0 -0.94873,1.80256 h 0.18975 l 0.75898,-1.80256 m 2.4667,0 -0.18975,0.60085 h 0.18975 v -0.60085 m -107.775787,0.20028 -0.189747,0.20029 0.189747,-0.20029 m 34.53379,0 v 0.20029 h 0.569239 l -0.569239,-0.20029 m 77.416407,0 v 0.20029 h 0.75899 l -0.75899,-0.20029 m 35.48252,0 -0.18974,0.20029 0.18974,-0.20029 m -73.81123,0.20029 v 0.60085 c -11.057429,0.3463 -21.055227,11.06056 -32.446583,7.41052 5.338161,-0.40469 10.215611,-0.59331 15.369434,-2.43754 3.179174,-1.13763 5.956521,-3.15421 9.107809,-4.34363 2.603889,-0.98282 5.228249,-1.23013 7.96934,-1.2302 m 32.44658,7.81108 v 0.20029 c -11.3938,3.52972 -21.23765,-6.90165 -32.25683,-7.41052 v -0.60085 c 5.96146,4.5e-4 10.01876,2.74766 15.36943,4.98346 5.18941,2.16842 11.29578,3.58329 16.8874,2.82762 m -103.221876,-7.6108 v 0.60085 h 0.189746 l -0.189746,-0.60085 m 39.277443,0 0.189747,0.60085 h 0.189746 l -0.379493,-0.60085 m -19.164356,0.20028 c -1.702107,1.95308 -3.570647,3.89343 -6.261621,3.40484 l 2.846191,-2.40341 -0.379492,0.60085 0.569238,-0.80114 3.225684,-0.80114 m 105.309089,1.80256 -0.56924,-0.80113 2.84619,2.20312 v 0.20029 c -2.63634,0.47867 -4.66665,-1.37726 -6.26162,-3.40484 l 3.98467,1.80256 m -64.893169,-1.40199 -2.087207,1.00142 v 0.20029 l 2.276953,-1.00142 -0.189746,-0.20029 m 20.302829,0 v 0.20029 l 2.27696,1.00142 v -0.20029 l -2.27696,-1.00142 m -77.985644,0.20029 0.189746,0.20028 -0.189746,-0.20028 m 21.631055,0 -0.189746,0.20028 0.189746,-0.20028 m 17.646388,0 0.189746,1.00142 h 0.189746 l -0.379492,-1.0015 m 96.454261,0.13352 0.0633,0.13352 -0.0633,-0.13352 m -113.721156,0.0668 5.123144,2.80398 v 0.20029 c -1.459666,-0.45244 -4.455779,-1.45611 -5.123144,-3.00427 m 31.118361,0.60086 0.758984,-0.40057 -0.758984,0.40057 m 43.072365,-0.60086 -0.18975,0.80114 0.56924,-0.80114 h -0.37949 m 17.83613,0 v 0.20029 l -5.31289,2.80398 5.31289,-3.00427 m 7.77959,0 -0.18974,0.20029 0.18974,-0.20029 m -82.919043,0.20029 0.189746,0.20028 -0.189746,-0.20028 m 28.651662,0 c -0.68371,0.91273 -1.4037,1.32697 -2.4667,1.60227 v 0.20029 c 4.004361,1.66336 2.44498,6.81597 2.29784,10.41478 -0.0628,1.53516 0.0981,3.07667 -0.0209,4.60654 l -1.32822,-6.80967 h -0.18975 l 0.94873,6.80967 -1.36838,-2.40341 -2.23679,-5.40768 h -0.18975 l 2.27696,8.21166 c -1.78844,-0.78878 -2.79262,-3.45888 -3.605179,-5.20739 H 93.915 l 2.656449,5.60796 -0.75899,0.20028 -4.553901,-5.00711 3.605172,5.60796 -0.94873,0.20029 -1.89746,-1.60228 1.32822,1.60228 c -1.963724,0.60949 -2.612258,-1.21554 -2.656441,-3.00427 l -3.035937,-3.8054 2.276953,1.80256 c -1.803972,-2.21777 -4.41096,-3.70418 -7.020606,-4.60654 v -0.20028 l 2.276953,0.60085 v -0.20028 l -3.035937,-1.00143 v -0.20028 l 1.517969,-0.20028 v -0.20029 l -2.4667,0.40057 v -0.20029 l 3.605186,-1.2017 v -0.20029 l -5.312891,1.60228 5.312891,-2.40341 v -0.20029 l -5.882129,2.00285 v -0.20029 l 11.384766,-3.8054 v -0.20029 l -2.276953,0.40057 c 3.43151,-2.23575 7.938585,-3.59637 11.954005,-3.60511 m 12.712991,3.40483 v 0.20028 l -2.27696,-0.40057 v 0.20029 l 11.19502,3.8054 v 0.20029 l -6.26162,-2.20313 v 0.20028 l 5.69239,2.20313 v 0.20028 l -5.12315,-1.40199 v 0.20029 l 3.60518,1.2017 v 0.20029 l -2.65645,-0.40057 v 0.20028 l 1.70772,0.20029 v 0.20028 l -3.03594,1.00142 v 0.20029 l 2.84619,-0.80114 v 0.20029 c -2.85057,0.88095 -5.41553,2.48373 -7.58984,4.60653 l 2.4667,-1.80255 -3.22569,4.00568 c -0.0927,1.6282 -0.59643,3.60219 -2.4667,3.00427 l 1.89746,-2.20313 c -1.03717,0.78435 -1.88763,1.63633 -3.22568,1.40199 l 3.22568,-5.00711 -4.5539,5.00711 -0.75899,-0.20028 2.65645,-5.40768 H 106.628 l -2.84619,5.20739 -0.75898,-0.20028 2.27695,-8.01138 h -0.18975 c -0.97731,2.29524 -1.72982,5.8367 -3.41543,7.61081 l 0.94873,-7.00995 h -0.18974 l -1.32822,7.00995 h -0.18975 c 0,-4.33692 -2.187991,-12.99802 2.4667,-15.02133 l -2.4667,-1.80255 c 4.23698,0.0176 7.86294,1.91444 11.76426,3.40483 m 2.0872,-3.40483 0.18975,0.20028 -0.18975,-0.20028 m 14.42071,0 0.18974,0.20028 -0.18974,-0.20028 m -73.241998,0.20028 0.758985,0.40057 v 0.20028 l -0.948731,-0.40057 0.189746,-0.20028 m 88.990918,0 v 0.20028 l -1.32822,0.60086 1.32822,-0.80114 m -85.575488,1.00142 -0.379492,-0.60085 2.846192,-0.20029 c 5e-6,0.77801 0.79228,0.50479 1.328222,0.40057 v 0.20029 h -0.379492 v 0.20028 l 6.451368,1.20171 v 0.20028 h -0.948731 v 0.20029 l 1.328223,0.40056 v 0.20029 l 0.758984,0.60085 h -0.758984 v 0.20029 l 1.328223,0.40056 -2.276954,-0.20028 v 0.20028 h 0.569239 v 0.20029 l -5.502637,-1.00142 v 0.20028 l 8.72832,1.20171 v 0.40057 c -4.058863,-1e-4 -7.710554,-0.94805 -11.574512,-2.20313 l 0.379492,-0.20029 v -0.20028 l -0.94873,0.20028 v -0.20028 l 0.379492,-0.20028 -3.035938,-1.40199 v -0.20029 l 0.569239,0.20029 v -0.20029 l -1.138477,-0.60085 2.276953,0.60085 m 79.503618,-0.80114 2.84619,0.20029 -0.37949,0.60085 2.27695,-0.80114 v 0.20029 l -0.94873,0.40057 0.37949,0.40057 -3.60517,1.60227 0.37949,0.40057 c -3.64417,1.18369 -7.71874,2.76163 -11.57451,2.00284 v -0.20028 l 8.72832,-1.20171 v -0.20028 l -5.50264,1.00142 v -0.20029 h 0.56924 v -0.20028 h -2.4667 v -0.20028 h 1.51797 v -0.20029 l -0.94873,-0.20028 v -0.20029 l 0.94873,-0.20028 v -0.20029 l -0.37949,-0.20028 1.70771,-0.20028 v -0.20029 h -0.75898 v -0.20028 l 3.03594,-0.60086 -0.18975,-0.40056 3.41543,-0.20029 v -0.20028 h -0.37949 v -0.20029 l 0.94873,0.20029 v -0.20029 h -0.37949 v -0.20028 l 0.94873,0.20028 v -0.20028 h -0.3795 l 0.18975,-0.20029 m -93.165337,0.20029 0.189746,0.20028 -0.189746,-0.20028 m 16.697657,0.0668 0.06325,0.0668 c -0.09365,0.033 -0.210002,-0.0668 -0.06325,-0.0668 m 34.913279,-0.0668 v 0.20028 h 1.13848 l -1.13848,-0.20028 m 4.743661,0 v 0.20028 h 1.32822 l -1.32822,-0.20028 m -44.969831,0.20028 -0.189746,0.20029 0.189746,-0.20029 m 2.656446,0 0.569238,0.40057 v -0.20028 l -0.569238,-0.20029 m 81.021585,0 0.18975,0.20029 -0.18975,-0.20029 m -83.298539,0.20029 -0.189746,0.20028 0.189746,-0.20028 m 27.260189,0.0668 0.126501,0.0668 -0.126501,-0.0668 m 7.84284,1.13495 v 0.20028 l 3.225679,-1.20171 -3.225679,1.00143 m 12.3335,-1.20171 v 0.20028 l 3.03593,1.20171 v -0.20029 l -3.03593,-1.2017 m 35.48252,0 0.18974,0.20028 -0.18974,-0.20028 m 3.03594,0 -0.18975,0.20028 0.18975,-0.20028 m -15.36944,0.20028 -0.18974,0.60085 0.18974,-0.60085 m 13.85147,0.20029 v 0.20028 l 0.75898,-0.20028 h -0.75898 m -109.862997,0 -0.379492,1.00142 h 0.189746 l 0.189746,-1.00142 m 26.374709,0 0.189746,0.20028 -0.189746,-0.20028 m 13.092481,0 0.379492,1.00142 h 0.189746 l -0.569238,-1.00142 m 57.493067,0 -0.18974,0.60085 0.18974,-0.60085 m 39.46719,0 0.37949,1.00142 h 0.18975 l -0.56924,-1.00142 m -109.546748,0.26704 0.126496,0.0668 -0.126496,-0.0668 m 7.083854,-0.0668 0.189746,0.20028 -0.189746,-0.20028 m 17.456641,0 -0.189746,0.20028 0.189746,-0.20028 m 58.062313,0 0.18974,0.20028 -0.18974,-0.20028 m -75.139462,0.20028 0.189746,0.20029 -0.189746,-0.20029 m 67.739362,0 0.18974,0.20029 -0.18974,-0.20029 m -99.047469,0.20029 c 1.074867,1.46828 1.64639,2.7397 1.707715,4.60654 H 36.61169 l -1.517969,-2.80399 0.379492,0.20029 v -0.20029 l -0.379492,-1.80255 m 130.735069,0 c -0.21179,0.67064 -0.89613,1.98896 -0.18975,1.80255 l -1.51797,2.80399 h -0.18974 c 0.044,-1.91016 0.58152,-3.27337 1.89746,-4.60654 m 1.70771,0 -0.18974,0.20028 0.18974,-0.20028 m -134.34024,0.20028 c -0.623851,2.74949 -0.906601,5.62944 0.905706,7.99102 2.998415,3.90718 7.986483,1.288 8.961091,-2.98391 h 0.189747 c -0.06657,2.4167 -0.934359,4.39951 -3.225684,5.20311 -1.045416,0.36665 -2.781053,-0.56741 -3.225684,0.80542 -4.562018,-0.75285 -5.233645,-5.3974 -5.312891,-9.41336 h 0.189746 v 0.60085 h 0.189746 v -1.00142 h 0.189746 v 0.80114 h 0.189747 l 0.189746,-1.40199 h 0.189746 v 0.40056 h 0.189746 l 0.379492,-1.00142 m 51.231448,0.20029 -1.897461,1.00142 v 0.20028 l 2.087207,-1.00142 -0.189746,-0.20028 m 31.687602,0 v 0.20028 l 0.75898,0.40057 v -0.20028 l -0.75898,-0.40057 m 51.61094,0 0.18974,0.80113 h 0.18975 v -0.40056 h 0.18975 l 0.18974,1.60227 h 0.18975 v -1.00142 h 0.18974 v 1.2017 h 0.18975 v -0.80113 h 0.18975 c -0.002,3.98102 -0.86091,8.67865 -5.31289,9.41336 l 0.18974,-0.60085 c -3.61326,-0.60171 -6.40758,-0.61845 -6.64111,-5.40768 h 0.18974 c 0.95911,4.25846 5.96423,6.88657 8.94473,2.98391 1.9067,-2.49663 1.13219,-4.93235 1.11182,-7.79073 m -107.775789,0.40057 -0.189746,0.20028 0.189746,-0.20028 m 80.831839,0.0668 0.0633,0.0668 c -0.0937,0.033 -0.20996,-0.0668 -0.0633,-0.0668 m -58.50505,0.20028 0.126501,0.0668 -0.126501,-0.0668 m 8.348829,0 0.126501,0.0668 -0.126501,-0.0668 m 19.227611,-0.0668 v 0.20028 h 0.56923 l -0.56923,-0.20028 m 7.33685,0.0668 0.12649,0.0668 -0.12649,-0.0668 m 1.01197,-0.0668 0.18975,0.20028 -0.18975,-0.20028 m 22.01055,0.0668 c 0.14674,0 0.0304,0.0997 -0.0632,0.0668 l 0.0632,-0.0668 m -105.119339,0.33381 -0.189746,0.20028 0.189746,-0.20028 m 84.437019,0 -0.18975,0.20028 0.18975,-0.20028 m -38.708208,0.20028 -0.189746,0.20029 0.189746,-0.20029 m 37.190238,0 -0.18975,0.20029 0.18975,-0.20029 m 2.08721,0 -0.18975,0.20029 0.18975,-0.20029 m -42.313386,0.40057 v 0.20029 h -1.328222 l 1.328222,-0.20029 m 3.225684,0 -0.189746,0.20029 0.189746,-0.20029 m 7.589844,0.40057 v 0.20028 l 1.517969,-0.40056 -1.517969,0.20028 m 22.010548,-0.40057 v 0.20029 l 1.51797,0.40056 v -0.20028 l -1.51797,-0.40057 m 9.29756,0 -0.18975,0.20029 0.18975,-0.20029 m 4.17441,0 v 0.20029 h -1.13847 l 1.13847,-0.20029 m -56.354589,0.20029 v 0.20028 h 0.94873 l -0.94873,-0.20028 m 12.523243,0.0668 c 0.146733,0 0.03041,0.0997 -0.06325,0.0668 l 0.06325,-0.0668 m 40.226176,0 c 0.14673,0 0.0304,0.0997 -0.0632,0.0668 l 0.0632,-0.0668 m 11.57451,-0.0668 v 0.20028 h 0.94873 l -0.94873,-0.20028 m -70.585551,0.20028 v 0.20028 h -1.138476 v 0.20029 h 1.138476 v 0.20028 c -3.112975,0.34461 -5.711489,2.17453 -8.348828,3.80541 2.052961,-3.01811 4.889966,-4.33455 8.348828,-4.40626 m 66.790631,0 -0.18975,0.20028 0.18975,-0.20028 m 19.3541,4.40626 c -2.65656,-1.57108 -5.24681,-3.46202 -8.34883,-3.80541 v -0.20028 h 1.13848 v -0.20029 h -0.94873 c 3.23979,-0.69899 6.29832,1.65195 8.15908,4.20598 m -108.155279,-4.00569 -1.138476,1.40199 v 0.20028 l 1.138476,1.80256 h 0.189747 l 1.328222,-1.80256 v -0.20028 l -1.517969,-1.40199 m 19.733595,0 v 0.20028 h 0.758985 l -0.758985,-0.20028 m 17.836134,0 -0.189746,0.20028 0.189746,-0.20028 m 9.044562,0.0668 0.126502,0.0668 -0.126502,-0.0668 m 28.145678,-0.0668 v 0.20028 h 0.56923 l -0.56923,-0.20028 m 9.67705,0 -0.18975,0.20028 0.18975,-0.20028 m 16.69765,0 v 0.20028 h 0.94874 l -0.94874,-0.20028 m -82.03356,0.26704 0.126496,0.0668 -0.126496,-0.0668 m 26.24821,0.13353 v 0.20028 l 0.948731,-0.20028 H 84.8072 m 30.29613,-0.13353 0.12649,0.0668 -0.12649,-0.0668 m 26.94395,0 0.12649,0.0668 -0.12649,-0.0668 m 18.65836,-0.0668 -1.32822,1.20171 v 0.20028 l 1.32822,1.40199 1.32822,-1.40199 v -0.20028 l -1.32822,-1.20171 m -95.062796,0.26704 0.06325,0.0668 c -0.09364,0.033 -0.209995,-0.0668 -0.06325,-0.0668 m 69.447076,-0.0668 -0.18975,0.20029 0.18975,-0.20029 m 40.60566,0 v 0.80114 h -0.18974 l 0.18974,-0.80114 m -109.483498,0.26705 c 0.146757,0 0.03039,0.0997 -0.06325,0.0668 l 0.06325,-0.0668 m 68.308598,0 c 0.14676,0 0.0304,0.0997 -0.0633,0.0668 l 0.0633,-0.0668 m -109.293756,0.13353 v 0.60085 h -0.189746 l 0.189746,-0.60085 m 38.518459,0 -3.045967,2.66083 -1.98573,2.76902 -4.835101,0.57868 4.174415,-5.00711 -2.656446,4.40625 4.364161,-5.0071 v 0.20028 l -2.276954,2.80398 c 1.992027,-2.22863 3.345028,-3.2379 6.261622,-3.40483 m 3.984668,0 v 0.20028 h -0.758985 l 0.758985,-0.20028 m 66.031639,0 v 0.20028 h -0.56923 l 0.56923,-0.20028 m 3.41543,0 4.36417,2.60369 c -0.89488,-1.26835 -2.01256,-1.91222 -3.41543,-2.40341 v -0.20028 c 2.47071,0.37675 3.72563,1.9137 5.31289,3.8054 l -2.4667,-3.40483 4.36416,5.0071 -2.65645,-4.40625 3.98467,5.00711 c -1.50961,-7.4e-4 -3.87245,0.26336 -5.08907,-0.88484 -0.82234,-0.77609 -1.17381,-2.02806 -1.97561,-2.86761 -0.77245,-0.80879 -1.78451,-1.31429 -2.42263,-2.25608 m -78.17539,2.60369 3.605176,-2.20312 c -1.535178,0.0632 -2.703332,0.9396 -3.605176,2.20312 m 27.133693,-2.20312 v 0.20028 l 1.138476,-0.20028 h -1.138476 m 27.323437,-0.20029 v 0.20029 l 0.94873,0.20028 -0.94873,-0.40057 m -90.888382,0.40057 v 0.20028 l -1.517969,1.40199 1.897461,-1.60227 h 0.189747 l -2.4667,3.00426 1.897461,-1.40199 -2.466699,2.80398 0.569238,-0.20028 -1.517969,1.80256 2.846192,-2.00284 -1.707715,2.40341 1.328223,-1.00142 -0.948731,1.60227 1.138477,-1.00142 -2.087207,2.80398 1.328222,-1.20171 -2.466699,5.00711 h -0.379492 c -1.261588,-5.0702 -0.08093,-9.79498 4.36416,-12.61791 m 1.897461,0 c 0.140176,2.43787 0.1469,4.45503 -0.569238,6.80967 h -0.189746 l -0.189746,-4.00569 0.569238,0.40057 0.379492,-3.20455 m 90.888381,0 0.18975,0.20028 -0.18975,-0.20028 m 60.14952,0 v 0.60085 h -0.18975 l 0.18975,-0.60085 m 0.94873,0 0.18974,3.20455 h 0.18975 l 0.18975,-0.40057 0.18974,2.20313 -0.18974,1.80256 h -0.18975 c -0.72229,-2.19241 -1.08285,-4.55412 -0.37949,-6.80967 m 1.89746,0 c 4.19561,3.40047 5.26403,7.28821 4.17441,12.61791 -1.40233,-1.24637 -2.10707,-3.27648 -2.84619,-5.00711 H 179.87 l 1.13847,1.20171 -2.0872,-2.80398 0.94873,0.80114 -0.94873,-1.60228 1.70771,1.40199 -1.89746,-2.60369 2.84619,2.00284 -2.0872,-2.20313 0.94873,0.60085 -2.08721,-2.60369 1.70771,1.2017 -2.4667,-2.80398 2.08721,1.40199 -1.32822,-1.60227 m -152.93536,0.20028 2.466699,5.00711 c -1.338368,-1.18882 -2.514996,-3.1043 -2.466699,-5.00711 m 38.708205,0 c -0.799976,1.99381 -2.117347,3.33054 -3.984668,4.20597 0.792141,-2.09694 2.128552,-3.17944 3.984668,-4.20597 m 72.672755,0 c 1.67082,1.13992 3.02064,2.21206 3.79492,4.20597 -1.69415,-0.72464 -3.52997,-2.17056 -3.79492,-4.20597 m 38.51846,0.60086 c -0.45514,1.70653 -1.25201,3.17795 -2.4667,4.40625 l 2.4667,-4.40625 m -108.724516,0.20028 -0.94873,3.60512 h 0.189746 l 1.138476,-3.40483 h 0.189747 c -0.500331,4.8465 -4.270203,7.24928 -8.348829,8.41194 0.04513,-2.22423 0.556713,-3.86112 2.466699,-5.00711 l -0.379492,1.2017 h 0.189746 l 1.517969,-2.00284 -0.758984,1.40199 2.656445,-2.80398 -1.138477,2.20313 h 0.189747 l 3.035937,-3.60512 m 67.739356,0 2.84619,3.8054 h 0.18975 l -1.13848,-2.40341 3.03594,3.8054 h 0.18975 l -1.32822,-2.40341 c 1.11237,1.14349 1.82198,2.44326 2.27695,4.00569 h 0.18974 l -1.13847,-3.20455 c 1.87613,1.13771 2.42151,2.81238 2.4667,5.00711 -4.03294,-1.13658 -7.95849,-3.56509 -8.34883,-8.41194 h 0.18974 l 1.32823,3.40483 -0.75899,-3.60512 m -55.595605,0.20029 v 0.20028 h -0.569238 l 0.569238,-0.20028 m 43.831345,0 v 0.20028 h -0.75898 l 0.75898,-0.20028 m 47.43653,0.20028 0.37949,2.6037 h 0.18975 l -0.18975,-2.40342 h 0.18975 l 0.37949,4.00569 c -1.1294,-1.16781 -1.38016,-2.62772 -0.94873,-4.20597 m -139.653132,0.20028 -0.189746,2.40342 h 0.189746 l 0.379493,-2.40342 h 0.189746 c -0.0074,1.52387 -0.08435,2.86412 -1.138477,4.00569 -0.157873,-1.44019 -0.08252,-2.70644 0.569238,-4.00569 m 25.615724,0 c -1.004653,1.91751 -2.329772,3.59615 -4.553906,3.20455 l 2.656445,-2.00284 -1.138476,1.60227 3.035937,-2.80398 m 65.462408,0.0668 c 0.14671,0 0.0304,0.0997 -0.0633,0.0668 l 0.0633,-0.0668 m 23.52851,-0.0668 2.65645,2.80398 -0.94873,-1.60227 2.65645,2.00284 c -2.03031,0.35862 -3.85657,-1.09001 -4.36417,-3.20455 m -54.457127,10.41479 c -2.778383,-1.33872 -3.202,-4.70273 -5.694143,-6.52961 -3.596253,-2.63625 -8.71011,-2.63241 -12.900975,-3.28432 1.472797,-0.3 3.070652,0.0552 4.553907,0.17792 5.954361,0.49282 12.498163,2.70961 14.041211,9.63601 m 38.138967,-10.01422 v 0.20029 c -4.17227,0.79791 -9.09785,0.64082 -12.71193,3.28432 -2.49255,1.82316 -2.90048,5.22522 -5.69344,6.52961 1.63944,-8.92389 11.55236,-9.57497 18.40537,-10.01422 m 12.90274,0 0.18974,0.20029 -0.18974,-0.20029 m -58.821297,0.40057 v 0.20029 h -0.569238 l 0.569238,-0.20029 m -25.425978,0.40057 0.189746,0.20028 -0.189746,-0.20028 m 45.412565,0.13353 0.0632,0.13351 -0.0632,-0.13351 m -17.519888,0.26704 v 0.20028 h 0.569239 l -0.569239,-0.20028 m 12.902737,0 v 0.60085 h 0.18974 l -0.18974,-0.60085 m 17.013901,0.0668 0.12649,0.0668 -0.12649,-0.0668 m -93.861074,0.53409 -0.379493,0.40057 0.379493,-0.40057 m 10.436035,0.40057 1.328223,4.40626 h -0.189746 l -2.4667,-2.20313 1.328223,-2.20313 m 56.354593,0 v 0.20029 l 0.758984,0.40057 -0.758984,-0.60086 m 23.908006,0.60086 0.75899,-0.40057 -0.75899,0.40057 m 57.30333,-0.60086 1.13847,2.20313 -2.65644,2.00284 c 0.22656,-1.57039 0.5825,-2.93418 1.51797,-4.20597 m -106.068076,0.40057 0.189746,0.20028 -0.189746,-0.20028 m 30.169626,0.20028 0.18975,0.20029 -0.18975,-0.20029 m -11.574508,0.20029 c 3.474367,2.1611 5.247631,8.92824 5.312891,13.01848 h 0.189746 c 0.482415,-1.92535 -0.35736,-3.92243 -0.758984,-5.80825 h 0.189746 v 0.40057 h 0.189746 l -1.138476,-4.40625 h 0.189746 l 1.328222,3.40483 h 0.189747 l -0.569239,-2.80398 h 0.189746 c 0.559788,1.49309 1.696916,3.57088 1.328223,5.20739 l 0.569238,1.20171 0.948731,-1.00142 c -0.934271,-0.11898 -0.984789,-1.75874 -1.138477,-2.6037 l 2.656446,1.80256 -0.189746,0.60085 0.758982,-0.20028 v 0.20028 l -2.087205,0.60085 -0.948731,1.60228 v 1.20171 h -0.189746 v -0.80114 h -0.189746 v 1.2017 h -0.189746 v -0.60085 l -1.138477,1.40199 0.189747,1.40199 -0.189747,-1.2017 h -0.189746 l -0.379492,0.80113 h -0.189746 l 0.379492,-1.2017 c -1.54054,-1.92324 -1.740495,-5.05427 -2.388399,-7.41052 -0.621498,-2.26022 -1.734988,-3.95734 -2.734746,-6.00853 m 25.425978,0 -0.37949,1.00142 h 0.18974 l 0.18975,-1.00142 m 11.954,0 c -2.87395,4.02688 -3.30969,8.61362 -4.93339,13.21876 h -0.3795 c -0.23978,-1.53429 0.29093,-2.9297 0.63726,-4.40625 0.77856,-3.3194 1.42511,-7.24344 4.67563,-8.81251 m -96.20127,0.20028 0.189747,1.60228 H 22.94997 v -1.60228 m 38.708206,0 -0.379493,1.00142 h 0.189746 l 0.189747,-1.00142 m 25.615723,0 -0.189746,0.20029 0.189746,-0.20029 m 6.261621,0 0.18975,0.60085 h 0.18974 l -0.37949,-0.60085 m 84.43702,0 -0.18975,1.80256 h -0.18975 l 0.3795,-1.80256 m -117.263095,0.60085 -0.758984,2.00285 0.758984,-2.00285 m -38.138967,0.40057 c -0.0059,2.65464 -0.729666,4.26496 -2.846191,5.80825 l 2.846191,-5.80825 m 155.781552,0 2.65644,5.80825 c -2.00767,-1.40944 -3.21901,-3.2129 -2.65644,-5.80825 m -158.248251,0.20029 0.189746,0.20028 -0.189746,-0.20028 m 70.965043,0 0.189746,0.20028 -0.189746,-0.20028 m 18.405368,0 0.18975,0.20028 -0.18975,-0.20028 m -75.898438,0.20028 1.707715,1.80256 -0.189746,-0.60085 h 0.189746 c 1.132527,1.94754 1.706444,3.93733 1.897461,6.20881 -2.389437,-1.47741 -3.954558,-4.44191 -3.605176,-7.41052 m 133.771008,0 c -0.40494,3.03204 -1.1455,5.76252 -3.79493,7.41052 0.14371,-2.23509 0.61403,-4.52325 2.08721,-6.20881 l -0.56924,1.2017 h 0.18975 l 2.08721,-2.40341 m -137.56593,0.20029 1.897461,3.8054 h 0.189746 l -0.94873,-3.00427 c 2.000667,1.76417 2.706034,6.31307 0.189746,8.01138 l -0.189746,1.2017 h -0.189746 l -0.189746,-1.40199 h -0.189747 v 2.20313 h -0.189746 v -3.00427 h -0.189746 l 0.189746,3.60512 -0.569238,-3.20455 h -0.189746 l -0.379492,3.00427 h 0.189746 v -1.00142 h 0.189746 v 3.60511 h -0.189746 c -1.531056,-3.78182 -1.109609,-7.49516 -0.379492,-11.4162 h 0.189746 l 0.189746,2.40341 -0.189746,-0.80114 c 0.715349,10e-6 0.569238,-1.58035 0.569238,-2.20312 h 0.189746 v 3.40483 h 0.189746 c 0.211717,-1.76041 0.02356,-3.14867 -0.569238,-4.80683 h 0.189746 l 0.948731,4.40626 h 0.189746 l -0.948731,-4.80682 m 141.36085,0 -0.56924,1.2017 h 0.18975 l 0.18974,-0.60085 h 0.18975 l -0.37949,4.60654 h 0.18974 v -3.20455 h 0.18975 c 0,0.86556 -0.0696,2.17143 0.56924,2.00284 l -0.18975,1.00142 h 0.18975 v -2.80398 h 0.18974 l 0.37949,5.80825 h 0.18975 v -0.60085 h 0.18975 l -1.13848,6.40909 h -0.18975 v -5.40767 h -0.18974 l -0.37949,3.00426 h -0.18975 l 0.18975,-3.60512 h -0.18975 v 3.00427 h -0.18975 v -1.60228 h -0.18974 l -0.3795,0.80114 -0.18974,-1.40199 h -0.18975 l -0.18974,0.40057 c -1.45585,-2.61087 -1.95912,-6.11665 0.56923,-8.21166 l -0.94873,3.00427 c 0.57579,-1.44033 1.08047,-2.8177 2.27696,-3.8054 m 8.72832,0 0.94873,1.00142 -0.94873,-1.00142 m -159.386729,0.20028 -0.379492,0.60085 0.379492,-0.60085 m 26.943947,10.81535 h -0.189746 l -0.189746,-3.40483 h -0.189747 c 0.118986,2.08536 0.214603,4.03873 -0.569238,6.00853 h -0.189746 c 0.957972,-3.38306 0.1396,-6.06447 -1.897461,-8.81251 1.050998,2.01705 1.809412,4.11641 2.087207,6.4091 h -0.189746 c -0.299457,-1.12355 -0.755079,-1.80169 -1.707715,-2.40341 -0.507788,-1.63097 -1.487255,-2.53449 -3.035938,-3.00427 -0.451006,-2.46765 -1.875755,-3.81612 -3.415429,-5.60796 3.463659,0.37478 8.39669,1.91165 9.597326,5.80845 0.499557,1.62136 0.21594,3.38343 -0.110021,5.0069 M 162.6031,67.343074 c -1.4043,1.82484 -2.87806,3.18384 -3.22568,5.60796 -1.54869,0.46979 -2.52814,1.3733 -3.03594,3.00427 -0.91631,0.54204 -1.35714,1.16472 -1.70771,2.20312 h -0.18975 l 1.51797,-5.40767 c -1.65614,2.43495 -2.09461,4.70307 -1.51797,7.6108 h -0.18975 c -0.62856,-1.85937 -0.57081,-3.67292 -0.37949,-5.60796 h -0.18974 l -0.18975,3.40483 c -3.04686,-6.55152 4.13702,-10.09005 9.10781,-10.81535 m -109.483499,0.20028 c -0.626392,1.83599 -1.597616,3.93888 -1.984589,5.80825 -0.356055,1.72001 0.285059,2.92239 -1.430841,4.00569 l 0.569238,-1.40199 h -0.189746 l -2.087207,2.40341 1.328223,-7.21024 h -0.189746 l -0.569239,3.00427 h -0.189746 c 0.01656,-3.3803 1.816906,-5.38662 4.743653,-6.60939 m 1.328223,0 c 0.200458,2.08915 0.334241,6.42798 -0.758985,8.21166 l 0.189746,-0.80114 h -0.189746 l -0.94873,1.00143 0.569238,-1.80256 h -0.189746 l -0.948731,2.00284 0.569239,-2.6037 h -0.189746 l -0.379493,1.40199 c -0.851602,-1.85258 0.819114,-6.13703 2.276954,-7.41052 m 56.164846,0 0.18975,0.20029 -0.18975,-0.20029 m 35.67227,0 c 1.17336,1.20856 1.47153,2.54159 1.70771,4.20598 h -0.18974 l -0.3795,-2.20313 h -0.18974 l 0.56924,3.00426 0.18974,-0.60085 h 0.18975 l 1.13848,1.40199 v 0.20028 l -0.56924,1.60228 h -0.18975 l -0.37949,-1.60228 h -0.18975 l 0.56924,2.6037 -0.37949,-0.40057 -0.75899,0.20029 -0.75898,-1.20171 0.37949,1.00142 c -1.06263,-1.56916 -1.06969,-6.32152 -0.75898,-8.21166 m 1.32822,0 c 2.73937,1.31534 4.68996,3.06704 4.74365,6.4091 h -0.18974 l -0.56924,-2.80398 h -0.18975 l 1.32823,7.21024 -2.27696,-2.20313 0.56924,1.40199 c -1.73246,-1.41305 -1.03557,-2.38005 -1.43782,-4.26393 -0.40587,-1.90086 -1.47199,-3.81669 -1.97761,-5.75029 m -108.155279,0.20029 0.189747,0.20028 -0.189747,-0.20028 m 121.627249,0 0.18975,0.20028 -0.18975,-0.20028 m -141.360843,0.20028 -0.569239,0.80114 0.569239,-0.80114 m 16.318165,0 c 3.417031,1.11971 2.538942,8.15733 3.035937,11.21593 -0.749829,0.0642 -1.5251,0.2046 -2.277526,0.12693 -3.727019,-0.3847 -2.848223,-4.42041 -2.845619,-7.13689 h 0.189747 c 1.00187,1.39992 2.003544,2.4431 3.605176,3.00427 -0.01831,-2.7033 -0.837543,-4.73136 -1.707715,-7.21024 m 128.647858,0 c -0.75333,1.68652 -1.45633,3.32713 -1.66141,5.20295 -0.24818,2.27002 1.46664,1.45006 2.48693,0.35491 0.39129,-0.42 0.72915,-0.88853 1.07194,-1.35189 h 0.18975 c -0.17538,1.47211 0.37226,2.97239 0.14378,4.40573 -0.43844,2.75034 -3.24669,2.82633 -5.26693,2.60423 0.45378,-3.04064 -0.41652,-10.17258 3.03594,-11.21593 m -78.934379,0.20029 -0.189746,0.20028 0.189746,-0.20028 m 29.410649,0 -0.18975,0.20028 0.18975,-0.20028 m 55.21611,0.20028 -0.37949,3.60512 h 0.18975 l 0.18974,-3.60512 m 10.81553,0 0.94873,1.00142 -0.94873,-1.00142 m -94.493559,0.20029 -0.189746,0.20028 0.189746,-0.20028 m 28.272169,0 -1.89746,8.41194 h -0.18975 v -0.80114 l -0.37949,-0.40057 c -0.84514,-0.18136 -0.65788,-0.82187 -0.18974,-1.40199 -0.41026,-1.62519 0.74605,-3.73518 1.32822,-5.20739 h 0.18974 l -0.56923,2.6037 h 0.18974 l 1.51797,-3.20455 m -79.693363,0.20028 0.379492,0.60085 -0.379492,-0.60085 m 3.225684,0 c 1.294846,1.43566 2.166052,2.7651 2.087207,4.80682 1.851475,0.39749 2.991695,1.08991 3.225684,3.20455 2.680045,0.54871 1.703302,3.95221 0.94873,5.80825 l -0.569238,-2.6037 h -0.189746 l 0.189746,2.20313 h -0.189746 l -0.569238,-1.60227 h -0.189746 l 0.758984,2.00284 -1.517969,-2.20313 h -0.189746 l 0.379492,1.40199 h -0.189746 l -1.517969,-4.20597 h -0.189746 l 0.758985,3.40483 h -0.189747 l -1.517968,-4.80682 h -0.189746 l 0.189746,2.6037 h -0.189746 l -1.138477,-10.01422 m 1.707715,0 v 0.20029 l 5.312891,3.20454 c -1.274785,-1.95516 -3.158004,-2.92025 -5.312891,-3.40483 m 114.986134,3.40483 5.3129,-3.20454 c -2.14692,-0.0679 -4.14996,1.39603 -5.3129,3.20454 m 7.21036,-3.40483 -1.32823,10.01422 h -0.18974 l 0.18974,-2.6037 h -0.18974 l -1.89746,5.40768 h -0.18975 l 0.94873,-3.40484 h -0.18975 l -1.51796,3.80541 h -0.18975 l 0.56924,-1.60228 h -0.18975 l -1.51797,2.20313 0.56924,-1.40199 h -0.18974 l -0.18975,0.60085 h -0.18975 v -1.80256 h -0.18974 l -0.56924,2.6037 c -0.92138,-1.97551 -1.66232,-5.17546 0.94873,-6.00853 0.24653,-2.08203 1.43214,-2.62285 3.22568,-3.00427 -0.21326,-2.0705 0.82991,-3.52727 2.27696,-4.80682 m -144.017296,0.40057 0.189746,0.20028 -0.189746,-0.20028 m 146.547236,0.33381 0.0633,0.13352 -0.0633,-0.13352 m -129.280341,0.0668 0.189746,0.20028 -0.189746,-0.20028 m 14.61045,0 -0.379492,0.80114 0.379492,-0.80114 m 3.035938,0 -0.569238,3.00426 h 0.189746 l 0.379492,-3.00426 m 96.770513,0 0.75898,0.80114 -0.75898,-0.80114 m -59.390531,0.40057 1.328221,1.2017 -1.328221,-1.2017 m 19.164361,0 -0.3795,0.60085 0.3795,-0.60085 m -68.498348,0.40057 1.138477,0.80113 -1.138477,-0.80113 m 116.883598,0.80113 1.13848,-0.80113 -1.13848,0.80113 m -114.606644,0.20029 0.569238,0.60085 -0.569238,-0.60085 m 52.306673,0.0668 0.1265,0.0668 -0.1265,-0.0668 m 8.791571,-0.0668 0.18975,0.20028 -0.18975,-0.20028 m 52.18018,0 -0.94873,1.40199 h 0.18975 l 0.75898,-1.40199 m -93.165337,0.40057 v 0.20028 l -2.276954,0.40057 v 0.20028 l 2.087208,0.20029 v -0.20029 h -0.379493 v -0.20028 l 0.948731,0.20028 c 0.08396,-0.53678 0.515588,-0.34509 0.94873,-0.20028 l -4.491594,1.54275 -2.908504,1.06095 v -0.20029 l 1.897461,-0.80113 -1.897461,0.40056 v -0.20028 l 1.138477,-0.40057 v -0.20028 l -3.035938,0.40057 c 2.258693,-2.2859 5.002695,-2.53001 7.969337,-2.20313 m 81.211327,2.00284 v 0.20029 l -2.84619,-0.20029 v 0.20029 l 0.94873,0.20028 v 0.20028 l -1.89746,-0.40056 1.89746,0.80113 v 0.20029 c -1.16126,-0.0558 -1.86341,-0.31334 -2.4667,-1.40199 -1.89094,0.28578 -3.35648,-0.40027 -5.12314,-1.00143 v -0.20028 h 2.08721 v 0.20028 l -0.3795,0.20029 0.94874,0.20028 v -0.20028 h -0.3795 v -0.20029 h 1.51797 v -0.20028 l -2.27695,-0.40057 c 2.87322,-0.99823 5.57927,0.0944 7.96933,1.80256 m -116.251107,-1.66903 0.06325,0.13351 -0.06325,-0.13351 m 57.809312,-0.13353 -0.189746,0.20029 0.189746,-0.20029 m 1.011981,0.13353 0.06325,0.13351 -0.06325,-0.13351 m 19.480594,2.67045 0.56924,-0.20028 v 0.60085 l 1.32823,0.80114 -0.18975,-0.40057 1.51797,1.60227 -3.22569,-2.00284 0.94873,0.80114 v 0.20028 c -5.52054,-2.09695 -9.486551,-2.54612 -14.98994,0 l 0.56924,-0.80113 -2.087206,1.40199 1.138476,-1.60228 -0.18975,0.40057 h 0.18975 l 1.51797,-1.00142 c 2.199909,-3.64371 10.80414,-3.48091 12.90273,0.20028 m 6.13512,-2.67045 0.0633,0.13351 -0.0633,-0.13351 m 1.26498,-0.13353 -0.18974,0.20029 0.18974,-0.20029 m 46.29805,0 0.18975,0.20029 -0.18975,-0.20029 m 11.19502,0 v 0.60085 h 0.18975 l -0.18975,-0.60085 m -77.66941,0.26704 0.12651,0.0668 -0.12651,-0.0668 m 11.82751,-0.0668 0.75899,0.40057 v 0.20029 l -0.94873,-0.40057 0.18974,-0.20029 m 5.88213,0 -0.56924,2.40342 -0.75898,-0.20029 0.18975,0.60085 -1.51797,-0.80113 0.75898,1.00142 -1.13847,-1.00142 3.03593,-2.00285 m 1.96071,0.33381 0.0633,0.13353 -0.0633,-0.13353 m -0.94873,0.20028 0.0633,0.13353 -0.0633,-0.13353 m 54.39389,-0.13352 0.37949,3.20455 h -0.18975 l -0.18974,-3.20455 m -113.468175,0.20029 v 0.60085 h 0.189746 l -0.189746,-0.60085 m 6.83086,0.40057 v 0.20028 l 2.276953,-0.40057 -2.276953,0.20029 m 27.007197,-0.26705 0.06325,0.13352 -0.06325,-0.13352 m 6.008628,-0.13352 -0.94873,0.80113 0.94873,-0.80113 m 13.66172,0 0.75898,0.60085 v 0.20028 l -1.13848,-0.60085 0.3795,-0.20028 m 39.27744,0 v 0.60085 h 0.18975 l -0.18975,-0.60085 m 25.10973,0.13352 0.0633,0.13352 -0.0633,-0.13352 m -143.321553,0.0668 0.189747,0.20028 -0.189747,-0.20028 m 4.933399,0 -0.189746,2.80398 h -0.189746 l 0.379492,-2.80398 m 6.641114,0 v 0.60085 h 0.189746 l -0.189746,-0.60085 m 56.923829,0 0.18975,0.20029 -0.18975,-0.20029 m 16.697661,0 0.18974,0.20029 -0.18974,-0.20029 m 24.47725,0 v 0.20029 l 1.89746,0.20028 v -0.20028 l -1.89746,-0.20029 m 16.57115,0.13352 0.0633,0.13353 -0.0633,-0.13353 m -108.787761,0.0668 0.189746,0.20029 -0.189746,-0.20029 m 40.985158,0 0.189746,0.20029 -0.189746,-0.20029 m 9.424052,0.0668 0.1265,0.0668 -0.1265,-0.0668 m 8.032591,-0.0668 v 0.20029 l 0.75898,0.20028 v -0.20028 l -0.75898,-0.20029 m 67.73936,0 0.18974,0.20029 -0.18974,-0.20029 m -142.30958,0.20029 v 0.80114 h 0.189746 l -0.189746,-0.80114 m 34.913283,0 v 0.20028 l -3.605176,1.40199 c -0.593107,1.11016 -1.527703,1.63739 -2.656445,2.00285 v -0.20029 l 0.94873,-0.40057 v -0.20028 l -1.897461,0.40057 c 1.765662,-1.95511 4.87243,-2.40227 7.210352,-3.20455 m 30.169627,0.40057 v 0.20028 l 1.138479,-0.40057 -1.138479,0.20029 m 17.83614,-0.40057 0.18974,0.20028 -0.18974,-0.20028 m 23.52851,0 4.17442,1.00142 2.84619,2.20313 -1.89746,-0.40057 v 0.20028 l 0.75898,0.40057 v 0.20029 c -1.03856,-0.44064 -1.90512,-0.95132 -2.4667,-2.00285 l -3.60517,-1.40199 0.18974,-0.20028 m -70.3958,0.20028 -2.4667,2.80398 0.758985,-0.40056 c -0.531924,1.39323 -0.799501,3.2527 -2.276953,3.8054 v -0.40057 l 0.569238,-0.20028 v -0.20029 h -1.328223 l 0.758985,-0.40057 v -0.20028 l -1.328223,0.20028 v -0.20028 l 1.328223,-0.60085 v -0.20029 l -1.897461,0.60085 1.517968,-1.60227 -2.087207,1.00142 v -0.20028 l 6.451368,-3.80541 m 39.46719,0 v 0.20029 l 1.70771,0.80114 v -0.20029 l -1.70771,-0.80114 m 29.79014,0 6.26162,3.80541 v 0.20028 l -2.27695,-1.20171 1.70771,1.60228 v 0.20028 l -1.89746,-0.60085 1.13848,0.80114 v 0.20028 l -1.13848,-0.20028 v 0.20028 l 0.75898,0.40057 h -1.32822 l 0.56924,0.80114 -0.75898,0.20028 -1.51797,-4.00568 0.56923,0.40056 -2.0872,-2.80398 m 6.83086,0 0.18974,0.20029 -0.18974,-0.20029 m 28.84141,0 0.18974,2.00285 h 0.18975 l -0.37949,-2.00285 m -142.119836,0.20029 v 1.00142 H 28.8321 l -0.189746,-1.00142 m 61.287991,0.80114 0.94873,-0.60086 -0.94873,0.60086 m 20.113085,-0.80114 0.56924,0.60085 -0.56924,-0.60085 m 50.28272,0 v 1.00142 h 0.18975 l -0.18975,-1.00142 m -109.989493,0.3338 0.06325,0.13353 -0.06325,-0.13353 m 2.97269,-0.13352 0.189746,0.20029 -0.189746,-0.20029 m 41.174903,0 -0.37949,0.20029 v 0.20028 l 0.37949,-0.40057 m 18.02588,0 0.18975,0.20029 -0.18975,-0.20029 m 34.72354,0 0.56924,1.80256 h 0.18974 l -0.75898,-1.80256 m 3.09918,0.13352 0.0633,0.13353 -0.0633,-0.13353 m 21.56781,-0.13352 v 0.80114 h 0.18975 l -0.18975,-0.80114 m -143.637799,0.20021 v 1.00142 h 0.189746 l -0.189746,-1.00142 m 11.954005,0 0.189746,0.20028 -0.189746,-0.20028 m 54.836623,0 -1.517969,1.00142 v 0.20028 l 1.707719,-1.00142 -0.18975,-0.20028 m 10.436041,0 0.18974,0.20028 -0.18974,-0.20028 m -75.898446,0.20028 v 1.00142 h 0.189746 l -0.189746,-1.00142 m 61.477738,0 -0.379493,0.60085 0.379493,-0.60085 m 14.800198,0 v 0.20029 l 1.13847,0.60085 v -0.20029 l -1.13847,-0.60085 m -59.200787,0.20029 0.189746,0.20028 -0.189746,-0.20028 m 46.867287,0 -0.56924,0.40056 v 0.20029 l 0.75899,-0.40057 -0.18975,-0.20028 m 13.85147,0.20028 0.18974,0.20028 -0.18974,-0.20028 m 62.9957,0 0.18975,0.20028 -0.18975,-0.20028 m -34.34404,0.20028 0.18974,0.40057 -0.18974,-0.40057 m -79.883111,0.20029 v 0.20028 H 55.5863 l 0.569239,-0.20028 m 4.174414,0.40057 0.569238,-0.20029 -0.569238,0.20029 m 4.36416,-0.40057 -0.189746,0.20028 0.189746,-0.20028 m 43.262107,0 0.3795,0.40057 -0.3795,-0.40057 m 4.9334,0 v 1.00142 h 0.18975 l -0.18975,-1.00142 m 26.7542,0 v 0.20028 l 0.75899,0.20029 v -0.20029 l -0.75899,-0.20028 m 5.12315,0.0668 0.0632,0.0668 c -0.0936,0.0329 -0.20997,-0.0668 -0.0632,-0.0668 m -87.093463,0.3338 v 0.20029 l -0.94873,0.20028 0.94873,-0.40057 m 29.979885,-0.20028 0.189746,1.80256 1.138476,-1.40199 H 88.22263 v 0.80114 h -0.189746 l -0.379492,-1.20171 m 3.035937,0 -0.94873,1.00142 0.94873,-1.00142 m 19.733591,0 0.56924,0.80114 -0.56924,-0.80114 m 33.58506,0.60086 -0.94873,-0.20029 0.94873,0.20029 m -113.025424,-0.26705 0.06325,0.13353 -0.06325,-0.13353 m 18.342123,-0.13352 -0.758985,1.40199 0.758985,-1.40199 m 42.882621,0 -0.18975,0.40057 0.18975,-0.40057 m 59.01104,0 0.94873,1.40199 -0.94873,-1.40199 m -100.944931,0.20028 0.189746,0.20029 -0.189746,-0.20029 m 98.604731,0.13352 -0.0633,0.13353 0.0633,-0.13353 m 1.45471,0 0.0633,0.13353 -0.0633,-0.13353 m -117.895574,0.0668 0.189746,0.40057 -0.189746,-0.40057 m 26.943946,0 0.189746,0.20029 -0.189746,-0.20029 m 49.523738,0 0.94873,1.00142 -0.94873,-1.00142 m 32.25683,0 0.18975,0.20029 -0.18975,-0.20029 m -99.426955,0.20029 0.379492,2.00284 h 0.189746 l -0.569238,-2.00284 m 19.923341,0 -0.189747,0.40057 0.189747,-0.40057 m 29.790138,0 -0.569239,0.60085 0.569239,-0.60085 m 47.436526,0 0.18975,0.20028 -0.18975,-0.20028 m 29.41065,0 -0.18975,0.20028 0.18975,-0.20028 m -125.232433,0.20028 0.569239,2.6037 h 0.189746 l -0.758985,-2.6037 m 16.318165,2.6037 -0.94873,-1.2017 2.656445,2.60369 c 2.007621,0.77298 5.521063,3.82405 3.41543,6.00853 l 0.569238,-1.00142 c -5.633805,7.0008 -14.535951,6.81687 -19.164356,-1.40199 3.088849,2.18742 4.449244,5.73957 8.538575,6.20881 v -0.20028 c -3.695649,-0.4291 -5.554495,-3.26438 -7.589845,-6.20882 l 3.225684,3.60512 -3.41543,-4.00568 v -0.20029 l 4.174415,3.40484 v -0.20029 l -3.605176,-3.40483 c 0.985414,-1.30992 2.13491,-2.02505 3.605176,-2.6037 v -0.20028 l -1.897461,0.60085 c 1.56535,-1.54913 3.243646,-1.79791 5.312891,-1.80256 v -0.20028 c -1.607683,-0.17356 -2.855857,-0.0327 -4.364161,0.60085 v -0.20028 c 2.615399,-1.37389 4.711031,-1.20716 7.400098,-0.20029 v -0.20028 c -2.768991,-1.30099 -4.748734,-1.33805 -7.589844,-0.20029 3.310238,-3.27857 6.439288,-2.01269 9.677051,0.40057 m 35.862017,-2.6037 -0.948729,0.80114 0.948729,-0.80114 m 11.384761,0.80114 -1.13847,-0.60085 1.13847,0.60085 m 44.40059,1.40199 c -3.20266,-1.28256 -5.05259,-0.78629 -8.15908,0.40057 v 0.20029 c 2.75853,-0.93789 4.57006,-1.35957 7.4001,-0.40057 v 0.20028 l -3.79493,-0.20028 v 0.20028 c 2.17593,0.005 3.88207,0.36336 5.50264,2.00284 l -2.27695,-0.80113 v 0.20028 l 2.0872,0.80114 0.56924,1.00142 -0.18974,-0.60085 1.13847,1.40199 -3.41543,3.60512 4.17442,-3.40484 v 0.20029 l -3.41543,4.00568 1.70771,-1.60227 c -1.42379,2.32986 -3.43007,3.87037 -6.07187,4.20597 v 0.20028 c 3.98052,-0.5056 5.3338,-3.88821 8.34883,-6.00853 -3.34115,5.18878 -8.69643,8.25369 -14.42071,5.23455 -1.94099,-1.02374 -3.13558,-2.59133 -4.74365,-4.03284 l 0.94873,1.20171 c -3.00599,-2.86659 3.65669,-7.36067 5.88213,-8.81251 l -0.94873,1.2017 2.08721,-2.00284 0.56923,0.20028 c 2.04614,-1.72167 5.35566,-0.24704 7.02061,1.40199 m 6.45137,-2.20313 0.18974,0.20029 -0.18974,-0.20029 m 1.13847,0 -0.18974,1.80256 h 0.18974 v -1.80256 m -125.801662,0.20029 -0.189746,0.20028 0.189746,-0.20028 m 135.288972,0 -0.18975,0.20028 0.18975,-0.20028 m -136.047957,0.20028 c -0.06548,1.45541 -0.879854,2.3063 -1.897461,3.20455 l 1.517969,-3.20455 h 0.379492 m 56.734085,0 0.189746,0.20029 -0.189746,-0.20029 m 22.959282,0 0.18974,0.80114 h -0.18974 v -0.80114 m 45.53906,0 -0.37949,2.20313 h 0.18975 l 0.18974,-2.20313 m 11.57451,0 1.51797,3.00427 c -0.91125,-0.81055 -1.83571,-1.65432 -1.51797,-3.00427 m -135.858206,0.20029 -0.189746,0.20028 0.189746,-0.20028 m 7.653092,0.13352 0.06325,0.13353 -0.06325,-0.13353 m 50.029723,-0.13352 -0.189746,0.20028 0.189746,-0.20028 m 0.379493,0 -0.189747,0.20028 0.189747,-0.20028 m 68.877838,0 -0.18975,1.2017 h 0.18975 v -1.2017 m 7.96933,0 -0.18974,0.20028 0.18974,-0.20028 m 3.60518,0 -0.18975,2.00284 h 0.18975 v -2.00284 m -76.277931,0.20028 -0.948729,0.60086 0.948729,-0.60086 m 11.384761,0.60086 -1.13847,-0.60086 1.13847,0.60086 m -73.43174,-0.40057 0.189746,0.40057 -0.189746,-0.40057 m 59.95977,0 -1.51797,1.60227 1.51797,-0.80114 -3.035939,2.20313 0.379492,-0.60085 -0.758984,0.40057 3.415431,-2.80398 m 14.61045,0 3.03594,2.60369 -0.75899,-0.40057 1.70772,2.20313 -6.83086,1.80256 2.65644,-4.80682 3.22569,2.20312 -1.89746,-1.80255 0.37949,-0.40057 -1.51797,-0.80114 0.56924,0.80114 -0.75899,-0.40057 0.18975,-1.00142 m 35.10303,0 -0.37949,0.40057 0.37949,-0.40057 m -98.47823,0.20028 0.189746,1.00142 h 0.189746 l -0.379492,-1.00142 m 13.851466,0 -0.189746,0.20029 0.189746,-0.20029 m 54.267384,0 -0.37949,0.40057 v -0.40057 h 0.37949 m 43.45186,0 v 1.00142 h 0.18975 l -0.18975,-1.00142 m 11.57451,0 -0.37949,0.40057 0.37949,-0.40057 m -133.960748,0.40049 c 0.792624,0.7858 1.60391,1.61204 2.656559,1.98765 2.024234,0.7223 3.176527,0.1089 4.553793,2.21832 -2.871415,-0.59106 -5.726895,-1.17781 -7.210352,-4.20597 m 28.398665,0.26705 0.126501,0.0668 -0.126501,-0.0668 m 33.648312,-0.0668 0.18974,0.80114 -1.328219,0.40056 -0.18974,-1.00142 1.328219,-0.20028 m 10.815531,1.2017 -1.32823,-0.40056 c 0.48097,-1.10398 1.223,-0.62401 1.32823,0.40056 m 32.19359,-1.13494 0.12649,0.0668 -0.12649,-0.0668 m 28.52516,-0.0668 c -2.07676,2.68264 -4.12262,3.37011 -7.21035,4.00569 1.33308,-2.11692 2.5479,-1.5228 4.55379,-2.2358 1.00209,-0.3562 1.82384,-1.10913 2.65656,-1.76989 m -119.982786,0.33381 -0.06325,0.13353 0.06325,-0.13353 m 39.783434,0 0.06325,0.13353 -0.06325,-0.13353 m 67.486362,-0.13352 -0.18975,0.20028 0.18975,-0.20028 m -125.169179,0.3338 0.06325,0.13353 -0.06325,-0.13353 m 20.239584,-0.13352 -0.379492,0.40057 0.379492,-0.40057 m 101.893655,0 0.18975,0.40057 -0.18975,-0.40057 m 2.21371,0.13352 -0.0633,0.13353 0.0633,-0.13353 m -91.20463,0.0668 0.189746,0.20029 -0.189746,-0.20029 m 30.92861,0 c 0.43512,1.94924 1.45112,3.30896 2.656449,4.80683 l -7.020605,-1.80256 c 1.069702,-1.411 2.780092,-2.37321 4.364156,-3.00427 m 15.36944,0 -0.18975,0.20029 0.18975,-0.20029 m 4.55391,0 -0.18975,1.40199 0.18975,-1.40199 m 24.85674,0 0.18974,0.20029 -0.18974,-0.20029 m -98.161988,0.33381 -0.06325,0.13353 0.06325,-0.13353 m 14.294206,-0.13352 v 0.20028 l 5.123144,2.00285 v -0.20029 l -5.123144,-2.00284 m 3.162436,0.0668 0.126495,0.0668 -0.126495,-0.0668 m 1.960708,-0.0668 1.707715,1.2017 v -0.20028 l -1.707715,-1.00142 m 80.262598,1.00142 v 0.20028 l 1.70772,-1.2017 -1.70772,1.00142 m 1.70772,1.00142 v 0.20029 l 5.12314,-2.00285 -5.12314,1.80256 m 19.4806,-1.86932 -0.0633,0.13353 0.0633,-0.13353 m -113.02543,0.0668 -0.189746,0.20028 0.189746,-0.20028 m 42.692873,0.60085 0.758985,-0.40057 -0.758985,0.40057 m 19.164357,-0.60085 0.37949,0.40057 -0.37949,-0.40057 m -13.661721,0.40057 -0.56924,0.80113 0.94873,-0.40056 1.13848,2.00284 h 0.18975 l 0.56923,-0.60085 -0.56923,1.60227 c -1.18986,-0.43541 -3.747209,-2.34544 -1.70772,-3.40483 m 10.056541,0.40057 c -0.59401,1.43869 -1.48319,2.37726 -2.84619,3.00426 l -0.56924,-1.60227 h 0.18975 l 0.37949,0.80113 h 0.18975 c -0.48232,-1.52731 1.07943,-1.65128 0.94873,-2.20312 l 1.13848,0.40056 v -0.20028 l -0.75899,-0.40057 1.32822,0.20029 m 52.55967,-0.20029 -0.18974,0.60085 h 0.18974 v -0.60085 m 11.95401,0.20029 -0.18975,0.20028 0.18975,-0.20028 m -128.458113,0.20028 0.189746,0.20028 -0.189746,-0.20028 m 0.94873,0 0.189747,0.20028 -0.189747,-0.20028 m 9.866798,0 v 0.20028 l 2.087207,0.60086 -2.087207,-0.80114 m 92.785845,0.60085 v 0.20029 l 2.08721,-0.60086 -2.08721,0.40057 m -50.472461,-0.40057 0.18974,0.20029 -0.18974,-0.20029 m 0.88548,0.0668 0.1265,0.0668 -0.1265,-0.0668 m 8.412071,-0.0668 0.18975,0.20029 -0.18975,-0.20029 m 0.94874,0 0.18974,0.20029 -0.18974,-0.20029 m 51.80068,0 v 0.80114 h 0.18975 l -0.18975,-0.80114 m -67.296614,0.53409 0.06324,0.13353 -0.06324,-0.13353 m -48.258761,0.26705 0.189746,0.40057 -0.189746,-0.40057 m 8.918067,0 v 0.20029 h 0.758984 l -0.758984,-0.20029 m 98.667978,0 v 0.20029 h 0.94873 l -0.94873,-0.20029 m 1.89746,0 0.18974,0.20029 -0.18974,-0.20029 m -102.273153,0.20029 -0.569239,0.80113 0.569239,-0.80113 m 48.195512,0 -0.3795,0.80113 h 0.18975 l 0.18975,-0.80113 m 6.261621,0 0.75898,0.80113 -0.75898,-0.80113 m -4.174421,0.20028 v 0.80114 h 0.18975 c 0.591071,-0.84348 1.671481,-0.75534 2.087211,0.20028 h 0.18974 l -0.18974,-0.80114 0.56924,-0.20028 0.56923,1.60227 -4.364161,0.20029 0.3795,-1.80256 h 0.56923 m -39.087692,0.20028 v 0.20029 l 2.087207,0.40057 v -0.20029 l -2.087207,-0.40057 m 78.365143,0.40057 v 0.20029 l 2.0872,-0.40057 -2.0872,0.20028 m -84.247272,-0.20028 1.138476,0.80114 -1.138476,-0.80114 m 43.135611,0.13352 0.0633,0.13353 -0.0633,-0.13353 m 48.701501,-0.13352 -0.75898,0.80114 0.75898,-0.80114 m 10.62578,0 -0.18974,0.20028 0.18974,-0.20028 m -53.2554,0.3338 0.0632,0.13353 -0.0632,-0.13353 m 49.08099,-0.13352 0.56924,0.60086 -0.56924,-0.60086 m -109.862995,1.40199 v 0.20029 l -2.656445,0.40057 v 0.20029 l 1.517969,0.20028 v 0.20029 l -1.897461,0.20028 v 0.20028 h 1.328222 v 0.20029 l -1.707715,0.20028 v 0.20029 h 0.948731 v 0.20028 l -5.312891,-2.60369 c 2.455454,-1.422 5.30699,-0.91499 7.77959,0.20028 m 4.933399,-0.80114 0.569238,-0.40057 -0.569238,0.40057 m 51.484445,-0.26704 0.0632,0.13352 -0.0632,-0.13352 m 66.727381,0.66761 v 0.20029 l -5.50264,2.60369 v -0.20028 h 1.13848 v -0.20029 l -1.70772,-0.20028 v -0.20029 h 1.32822 v -0.20028 l -1.89746,-0.20028 v -0.20029 l 1.51797,-0.20028 v -0.20029 l -2.65644,-0.40057 c 2.31578,-1.69715 5.22243,-1.39082 7.77959,-0.60085 m -130.165831,0 v 0.20029 l 2.087208,1.2017 -2.087208,-1.40199 m 127.319631,1.40199 2.08721,-1.2017 -2.08721,1.2017 m -73.811229,-1.2017 0.94873,0.40056 v 0.40057 l -0.189746,0.20029 -0.758984,-1.00142 m 22.579789,0 -0.3795,1.00142 -0.75898,-0.40057 1.13848,-0.60085 m -73.621491,0.20028 v 0.20028 l 0.758984,0.40057 -0.758984,-0.60085 m 123.524711,0.60085 0.75899,-0.60085 -0.75899,0.60085 m -7.77959,-0.40057 -1.51797,1.80256 1.51797,-1.80256 m -60.33926,0.40057 v 0.20029 l -1.51797,-0.20029 h 1.51797 m 15.17969,-0.20028 v 0.20028 l -1.32822,0.20029 1.32822,-0.40057 m -64.893168,0.20028 -0.569238,2.00285 h 0.189746 l 0.569238,-1.40199 h 0.189746 l -1.897461,3.00426 c 1.283702,-0.71998 1.964374,-1.71265 2.276953,-3.20455 h 0.189746 l -1.968372,3.86337 -2.016296,4.34829 h -0.189746 c 0,-3.68761 0.374666,-6.129 3.225684,-8.61223 m 112.709188,0 1.13847,2.20313 -0.75898,-2.20313 c 2.73846,2.4287 3.31405,4.80159 3.03594,8.41194 h -0.18975 c -0.86721,-1.34324 -1.53532,-2.5381 -1.32822,-4.20597 -1.42599,-0.92811 -2.27587,-2.01998 -2.4667,-3.8054 h 0.18975 c 0.27863,1.5209 0.97812,2.4838 2.27695,3.20455 v -0.20028 c -1.09584,-0.84197 -1.90965,-1.92092 -1.89746,-3.40484 m -114.606649,0.20029 -0.189746,0.20028 0.189746,-0.20028 m 2.466699,0 -0.189746,0.20028 0.189746,-0.20028 m 50.662209,0.20028 v 0.20029 l -2.087209,0.80113 c 0.60819,-0.7742 1.13252,-1.04222 2.087209,-1.00142 m 12.902731,1.00142 c -0.95188,-0.0113 -1.46237,-0.23659 -2.0872,-1.00142 0.93899,-0.0132 1.43287,0.30606 2.0872,1.00142 M 61.088937,84.567534 58.053,85.568954 v 0.20029 l 3.225683,-1.00142 -0.189746,-0.20029 m 32.067093,0 c -0.86263,0.66141 -1.49215,0.56562 -2.466701,0.20029 l 2.466701,-0.20029 m 3.794919,0.20029 -1.70771,3.40483 -0.948729,-1.00142 v -0.20029 l 2.276949,-1.80256 v -0.20028 l -0.37949,-0.20028 h 0.75898 m 7.400101,0.20028 v 0.20028 l 2.08721,1.80256 v 0.20029 l -0.94873,0.80114 -1.70772,-3.20455 0.56924,0.20028 m 3.60517,-0.40057 h 2.08721 v 0.20029 c -0.7062,0.37508 -1.72621,0.8238 -2.08721,-0.20029 m 31.49786,0 v 0.20029 l 3.03594,1.00142 v -0.20029 l -3.03594,-1.00142 m -41.364651,0.20029 -1.51797,4.80682 c -1.47351,-1.46518 -0.0696,-4.03913 1.51797,-4.80682 m 6.071871,4.60654 -1.51797,-4.60654 c 1.55916,0.70515 3.09673,3.21841 1.51797,4.60654 m -13.661717,-4.40626 c 0.477076,4.33169 1.075823,8.63911 0.698647,13.01848 -0.429124,4.982526 -1.855121,9.778006 -2.012966,14.821036 -0.173822,5.55347 0.74943,10.60977 1.693811,16.02274 h -0.189746 l -0.379492,-1.60227 h -0.189746 l 0.379492,2.20313 h 0.189746 l 0.189746,-0.40057 0.379493,1.00142 h -0.189746 l -0.189747,-0.60085 h -0.189746 l 0.758985,1.80255 c -0.186573,0.59081 -0.282129,0.72538 0.189746,0.60086 l 0.56924,2.60369 h -0.18975 c -1.560898,-3.56161 -2.716567,-7.52012 -3.225682,-11.4162 h -0.189746 l 0.189746,2.20313 c -3.703847,-9.92014 1.478275,-20.14867 1.517083,-30.042646 0.0097,-2.46613 -0.193365,-4.96492 -0.491366,-7.41046 -0.137058,-1.12474 -0.462663,-2.25233 0.681998,-2.80404 m 21.631057,40.056856 h -0.18975 v -1.20171 h -0.18974 c -0.69812,4.20131 -1.8965,8.25107 -3.79493,12.01706 l -0.37949,-0.40056 -0.18974,0.60085 h -0.18975 l 0.56924,-1.20171 h 0.18974 l -0.18974,0.60086 h 0.18974 l 0.75899,-2.80399 h 0.18975 l 0.18974,0.40057 0.18975,-1.80256 0.94873,-2.60369 h -0.18975 l -0.18974,0.80114 h -0.18975 c 1.71154,-8.03638 2.38567,-15.64274 1.12113,-23.83383 -0.69417,-4.49649 -1.54764,-8.634746 -1.33009,-13.218766 0.0784,-1.65126 -0.0495,-3.74792 0.7782,-5.20739 v -2.20313 c 1.14951,0.51312 0.79169,1.70748 0.65487,2.80401 -0.30746,2.46405 -0.46792,4.92599 -0.46499,7.41049 0.006,4.72123 1.54331,9.175086 2.13847,13.819616 0.69815,5.44825 0.36232,10.61704 -0.43089,16.02274 m 37.56973,-39.856576 0.18974,0.20029 -0.18974,-0.20029 m -110.685229,0.26705 0.126496,0.0668 -0.126496,-0.0668 m 122.575989,0 0.12649,0.0668 -0.12649,-0.0668 m -109.989498,0.33381 0.189746,0.20028 -0.189746,-0.20028 m 41.554398,1.40199 -0.94873,-1.40199 0.94873,1.40199 m 15.36943,-1.40199 -0.94873,1.2017 0.94873,-1.2017 m 40.41592,0 0.18975,0.20028 -0.18975,-0.20028 m -0.37949,0.20028 -0.18975,0.40057 0.18975,-0.40057 m -105.498833,0.20029 0.189747,0.20028 -0.189747,-0.20028 m 9.107813,0 0.189746,0.20028 -0.189746,-0.20028 m -5.692383,0.20028 2.087207,7.6108 h 0.189747 l -1.707715,-6.80966 h 0.189746 c 0.538452,2.0456 0.65059,3.84959 1.897461,5.60796 l -1.328223,-4.80682 3.225684,3.40483 -0.758985,-1.60228 2.4667,2.40342 -0.948731,-1.60228 2.846192,2.40341 -1.517969,-1.80256 v -0.20028 c 2.094153,0.7245 2.613094,2.0102 2.087207,4.20597 2.588496,0.5582 1.990475,2.98636 1.328223,5.007106 C 51.530657,96.915864 45.391365,93.916474 46.478487,86.370094 m 6.071876,0 0.189746,0.20029 -0.189746,-0.20029 m 11.384766,0 -1.707715,1.40199 v 0.20029 l 1.707715,-1.60228 m 84.057521,0 0.18975,0.20029 -0.18975,-0.20029 m 6.45137,0 c -0.30592,2.7734 -0.65101,5.90541 -2.29701,8.19502 -1.87557,2.60896 -5.45948,4.11223 -8.13903,5.624596 -0.40814,-2.072736 -1.08374,-4.446056 1.51797,-5.007106 -0.46806,-1.95438 -0.19617,-3.5596 1.89746,-4.00569 v 0.20029 l -1.32822,1.60227 2.84619,-2.40341 -1.32822,1.80256 2.84619,-2.6037 -0.94873,1.80256 2.4667,-3.00426 -1.13848,3.40483 h 0.18975 l 1.89746,-4.00568 -1.51797,5.0071 c 1.39126,-1.8442 1.58269,-3.78525 2.08721,-6.00853 h 0.18975 c -0.33983,2.56093 -0.77111,4.88986 -1.89747,7.21024 l 2.65645,-7.81109 m -103.601372,0.20029 0.189746,0.20028 -0.189746,-0.20028 m 2.213705,0.0668 0.126496,0.0668 -0.126496,-0.0668 m 83.741277,-0.0668 c 1.9619,2.12651 4.49894,2.98048 7.21035,3.40483 v -0.20029 l -7.21035,-3.20454 m 10.62578,0 0.18975,0.20028 -0.18975,-0.20028 m 2.27696,0 0.18974,0.20028 -0.18974,-0.20028 m -104.360359,0.20028 -0.569239,2.00284 h 0.189746 l 0.189747,-0.60085 h 0.189746 l -0.379493,1.20171 h 0.189747 l 0.569238,-1.40199 h 0.189746 c -0.660979,2.39459 -2.265285,3.65334 -4.36416,4.60653 l 3.225683,-5.40767 -0.758984,1.2017 1.328223,-1.60227 m 8.854819,0.26705 0.126495,0.0668 -0.126495,-0.0668 m 5.755631,-0.0668 -1.328223,0.60085 v 0.20029 l 1.517969,-0.60086 -0.189746,-0.20028 m 31.687599,0 0.189746,2.20313 H 91.63806 v -2.20314 m 17.64639,0 -0.18975,2.00285 h -0.18974 l 0.37949,-2.00285 m 31.11836,0 v 0.20029 l 1.70771,0.80114 -1.70771,-1.00143 m 15.17969,0 1.78212,1.82254 1.63331,3.78542 c -2.00987,-0.97761 -3.61243,-2.25272 -4.17442,-4.60653 h 0.18975 l 0.18974,0.80113 0.56924,-0.20028 -0.18974,-1.60228 m -65.272663,0.20029 0.189746,0.20028 -0.189746,-0.20028 m 19.923343,0 0.18974,0.20028 -0.18974,-0.20028 m 45.91856,0 0.56923,0.80114 -0.56923,-0.80114 m -106.068077,0.20028 0.189746,0.20029 -0.189746,-0.20029 m 58.252057,0 -0.18975,0.20029 0.18975,-0.20029 m 42.06039,0.0668 0.12649,0.0668 -0.12649,-0.0668 m -57.80932,0.13352 -0.18975,0.20029 0.18975,-0.20029 m 1.32822,0 c 0.48664,0.7842 0.70801,1.30577 0.3795,2.20313 l -0.3795,-2.20313 m 13.09248,0 -0.37949,2.00285 c -0.54385,-0.8125 -0.21533,-1.33123 0.37949,-2.00285 m -45.159568,0.40057 -5.123145,1.80256 v 0.20029 l 5.312891,-1.80256 -0.189746,-0.20029 m -9.487306,0.20029 v 0.20028 c 1.690179,0.61788 2.983892,0.75994 4.743653,0.40057 l -4.743653,-0.60085 m 91.267874,0.40057 v 0.20028 c 1.76927,0.33653 3.04765,0.23231 4.74365,-0.40057 l -4.74365,0.20029 m -95.062796,0 1.517969,3.60511 -1.517969,-3.60511 m 44.590336,0 0.75898,2.20312 -0.75898,-2.20312 m 14.61045,0 -0.75899,2.20312 0.75899,-2.20312 m 48.00576,0 0.3795,0.40056 -0.3795,-0.40056 m -113.847659,0.20028 -0.758985,2.6037 c 0.641858,-0.81939 0.930546,-1.53959 0.758985,-2.6037 m 2.656445,0 0.189746,0.20028 -0.189746,-0.20028 m 110.811724,0 0.94873,1.20171 -0.94873,-1.20171 m 3.22568,0.20028 0.94873,2.40342 -0.94873,-2.40342 m -63.375191,0.20029 0.94873,1.40199 -0.3795,-0.20029 v 0.20029 l -0.37949,3.40483 h 0.18975 l 0.56924,-1.40199 h 0.18974 l -0.18974,2.00284 h 0.18974 l 0.18975,-3.00426 h 0.18974 l -1.01411,6.60938 1.73633,3.605116 -0.15298,3.60512 h -0.18974 l -0.18975,-3.00427 h -0.18975 l -0.18974,2.6037 -0.37949,-3.20455 h -0.18975 l -0.37949,3.40483 h -0.18975 l 0.37949,-4.20597 h -0.18974 l -0.56924,6.00853 H 94.86374 c -0.10925,-1.8692 -0.52611,-3.73483 -0.5272,-5.60796 -0.001,-2.275256 0.50844,-4.529306 0.52328,-6.809666 0.0118,-1.81158 -0.70297,-3.85168 0.383419,-5.40767 m 10.625781,0 0.002,5.80824 0.53143,6.409096 -0.53318,5.40768 h -0.18975 l -0.56924,-5.80825 h -0.18974 l 0.37949,4.40626 h -0.18975 l -0.37949,-3.60512 h -0.18975 l -0.37949,3.20455 -0.18974,-2.6037 h -0.18975 l -0.18975,2.80398 h -0.18974 l -0.25285,-3.20456 1.81664,-3.805386 -0.99455,-6.80966 h 0.18974 l 0.18975,3.40483 h 0.18974 l -0.18974,-2.40341 h 0.18974 l 0.56924,1.40199 h 0.18975 l -0.37949,-3.40484 -0.3795,0.20029 1.32823,-1.40199 m 2.65644,0 c 0.92075,2.73094 0.29785,6.68997 0.3795,9.61365 h -0.18975 l -0.75899,-4.00569 h -0.18974 c 0.13438,2.29859 1.50377,6.361966 0,8.211656 -8.4e-4,-4.441036 -1.76105,-9.821656 0.75898,-13.819616 m -63.754688,0.20028 -0.569238,0.40057 v 0.20029 l 0.569238,-0.60086 m 47.816018,0 c 1.27045,4.6689 0.55641,8.86475 0.18975,13.619336 h -0.18975 l -0.37949,-3.605116 c 0.69468,-1e-5 0.56924,-4.32281 0.56924,-5.20739 h -0.18975 l -0.56924,4.40625 c -0.629198,-1.78103 -0.190526,-5.23985 -0.189698,-7.21023 3.65e-4,-0.87392 -0.09539,-1.64557 0.758938,-2.00285 m 3.035939,0.80114 0.18974,0.20028 -0.18974,-0.20028 m 9.297561,0 0.18974,0.20028 -0.18974,-0.20028 M 58.053,90.976634 c 1.762963,3.29453 1.062996,6.82514 -0.569239,10.014216 h -0.189746 l 0.500325,-4.004586 -1.397444,-2.72251 -0.810596,-2.88655 1.138477,1.40199 h 0.189746 l -0.379492,-1.40199 0.94873,0.40057 -0.189746,-0.60086 0.758985,0.40057 v -0.60085 m 84.81651,0 -0.18975,0.60085 0.56924,-0.40057 v 0.60086 h 0.18975 l 0.56923,-0.60086 v 1.20171 l 1.13848,-1.00142 -0.83031,2.88655 -1.43186,2.72251 0.55446,4.004586 H 143.249 c -1.80825,-3.232416 -2.10784,-6.544736 -0.75898,-10.014216 h 0.37949 m -48.9545,0.20028 0.18975,1.20171 h -0.18975 v -1.20171 m 13.09248,0 -0.18974,1.00143 H 106.628 v -1.00143 h 0.37949 m -55.911849,0.33381 0.06325,0.13353 -0.06325,-0.13353 m 91.963609,0.26705 0.18975,0.20028 -0.18975,-0.20028 m -85.575489,0.20027 0.189746,0.20029 -0.189746,-0.20029 m 93.165339,0 -0.18975,0.40057 0.18975,-0.40057 m -97.782493,0.26705 0.126496,0.0668 -0.126496,-0.0668 m 53.761393,0.13352 v 1.60227 h -0.18974 l 0.18974,-1.60227 m 37.25348,0.13352 0.0633,0.13353 -0.0633,-0.13353 m -94.746547,0.26705 0.379492,0.40057 -0.379492,-0.40057 m 45.159577,0 v 0.80114 h -0.18975 l 0.18975,-0.80114 m 56.92383,0.20028 0.18974,0.20029 -0.18974,-0.20029 m -48.51176,0.73438 0.0632,0.13352 -0.0632,-0.13352 m -8.47533,0.20028 -0.0632,0.13353 0.0632,-0.13353 m -45.475809,0.0668 0.758984,1.00142 -0.758984,-1.00142 m 59.264029,0.13352 0.0633,0.13353 -0.0633,-0.13353 m 43.57836,0.0668 -0.56924,0.80114 0.56924,-0.80114 m -101.324421,0.20021 c 0.753446,1.07032 1.614113,1.56018 2.846192,1.80256 v -0.20028 l -2.846192,-1.60228 m 99.996201,0 -2.65645,1.60228 v 0.20028 c 1.12811,-0.22193 2.18122,-0.6216 2.65645,-1.80256 m -55.9751,0.40057 -0.18975,0.20029 0.18975,-0.20029 m 1.770959,0.13352 0.0633,0.13353 -0.0633,-0.13353 m 8.475321,-0.13352 v 0.60086 h 0.18975 l -0.18975,-0.60086 m -10.24628,0.40057 -0.18975,0.20029 0.18975,-0.20029 m 12.33349,0 v 1.20171 h -0.18974 l 0.18974,-1.20171 m -53.318653,1.00142 0.189746,0.20029 -0.189746,-0.20029 m 93.861073,0.0668 0.12649,0.0668 -0.12649,-0.0668 m -94.620057,0.33381 v 0.20028 l 3.605176,2.00285 c -0.976705,-1.29277 -2.04595,-1.98938 -3.605176,-2.20313 m 92.026857,2.20313 3.60518,-2.00285 c -1.5394,-0.19239 -2.73403,0.73959 -3.60518,2.00285 m -50.47246,-2.00285 v 1.20171 h -0.18975 l 0.18975,-1.20171 m 12.71299,0.20029 0.18974,3.204546 h -0.18974 v -3.204546 m -12.90274,1.2017 -0.18974,3.805396 h -0.18975 l 0.37949,-3.805396 m 0.75899,0.60086 v 1.00142 h 0.18974 L 94.674,98.787754 m 11.19502,0.20028 v 1.201706 h 0.18974 l -0.18974,-1.201706 m -13.72497,1.134936 -0.0632,0.13353 0.0632,-0.13353 m -0.50599,0.0668 v 1.40199 h -0.189746 l 0.189746,-1.40199 m 15.55918,0.20029 v 2.00284 h -0.18975 l 0.18975,-2.00284 m 2.08721,0 v 1.2017 h -0.18975 l 0.18975,-1.2017 m -17.836136,2.20316 c 0.929566,1.06567 1.323976,2.18482 1.517966,3.60512 l -0.94873,-1.40199 h -0.189744 l 0.379494,1.2017 h -0.18975 c -0.519026,-1.12878 -0.819789,-2.15442 -0.569236,-3.40483 m 17.836136,0 -0.37949,3.00427 h -0.18975 l 0.37949,-1.20171 h -0.18974 l -0.94874,1.80256 h -0.18974 c 0.15086,-1.44472 0.55654,-2.54804 1.51797,-3.60512 m -17.583139,1.93597 0.06324,0.13353 -0.06324,-0.13353 m 15.495929,-0.13352 v 0.80114 h -0.18975 l 0.18975,-0.80114 m -13.47197,0.40057 v 0.60085 h -0.18975 l 0.18975,-0.60085 m 2.466699,0.80114 c 0.53941,1.43063 0.80491,2.67035 0.56923,4.20597 h -0.18974 v -2.6037 h -0.18975 l -0.18974,2.00284 h -0.18975 c -0.29072,-1.28658 -0.30047,-2.37375 0.18975,-3.60511 m 8.538571,0 v 3.60511 h -0.18975 l -0.18974,-2.00284 h -0.18975 v 2.40341 h -0.18974 c -0.25219,-1.49217 -0.0447,-2.7406 0.75898,-4.00568 m 3.98467,0.20028 -0.18975,0.20028 0.18975,-0.20028 m -1.70772,0.20028 v 0.60086 h -0.18974 l 0.18974,-0.60086 m -13.09248,0.20029 1.897459,4.60654 c -1.448779,-0.71881 -2.048079,-3.02124 -1.897459,-4.60654 m 12.90274,0.60085 c -0.23298,1.51707 -0.59947,3.14375 -1.89746,4.00569 l 1.89746,-4.00569 m -13.09248,3.20455 -1.897464,-1.00142 v 0.20028 l 2.276954,1.80256 c -1.81731,-0.5063 -2.888562,-1.81935 -3.605177,-3.60512 1.721767,-0.0967 2.728427,0.92752 3.225687,2.6037 m 16.50791,-2.6037 c -0.78137,1.7624 -1.77634,3.06892 -3.60518,3.60512 l 2.4667,-2.20313 -2.27695,1.20171 c 0.72221,-1.61397 1.61663,-2.71042 3.41543,-2.6037 m -18.974612,1.00143 0.569238,0.60085 -0.569238,-0.60085 m 18.025882,0 -0.18975,0.40056 0.18975,-0.40056 m -18.974613,0.20028 v 1.20171 h -0.189746 l 0.189746,-1.20171 m 20.302833,0 v 1.40199 h -0.18975 l 0.18975,-1.40199 m -6.07188,0.80114 -0.18974,0.20028 0.18974,-0.20028 m -13.661715,0.20028 -0.379492,3.60512 h 0.189746 l 0.379493,-3.20455 h 0.189746 l -0.189746,2.40341 h 0.189746 l 0.189746,-1.80256 2.087206,1.00142 c -4.584578,7.84216 0.53954,18.49303 2.466699,26.43753 h -0.18975 L 93.72527,132.0349 h -0.18975 l 1.32822,4.00569 H 94.674 l -2.08721,-4.60654 0.18975,-0.60085 -0.56924,0.20028 v -1.40199 h -0.18975 v 0.40057 h -0.189744 l -0.379492,-3.20455 -0.758985,-4.80682 h -0.189746 l 0.189746,2.40341 h -0.189746 l -0.758984,-11.81677 h 0.189746 v 2.80398 h 0.189746 c 0.0037,-1.90126 -0.0263,-4.05964 0.758984,-5.80825 m 19.164355,0 0.18975,1.80256 h -0.18975 v -1.80256 m -19.923339,0.40057 v 1.80256 h -0.189746 l 0.189746,-1.80256 m 19.543849,0 0.37949,3.20455 h 0.18975 v -1.60228 h 0.18974 l 0.18975,3.60512 h 0.18975 v -0.60085 h 0.18974 c -0.0383,2.11136 0.25075,5.34387 -0.75898,7.21023 v 2.6037 h -0.18975 l 0.18975,-2.40341 h -0.18975 l -0.75898,4.80682 -0.37949,3.00426 c -0.67284,0 -0.51373,0.66329 -0.3795,1.20171 -0.46219,0 -0.30644,0.15745 -0.18974,0.60085 h -0.18975 l -0.18975,-0.60085 h -0.18974 l 0.18974,0.80114 c -0.81746,0 -1.92818,3.89559 -2.0872,4.80682 h -0.18975 l 1.32822,-4.20597 h -0.18974 l -1.70772,5.00711 h -0.18974 c 1.60712,-8.07343 6.7886,-17.85406 2.27695,-25.83668 l 2.4667,-1.60227 m 1.13848,0.40057 v 2.20313 h -0.18975 l 0.18975,-2.20313 m -1.51797,0.20028 0.18974,1.80256 h 0.18975 l -0.37949,-1.80256 m -17.393393,0.53409 0.06324,0.13353 -0.06324,-0.13353 m 16.824153,0.0668 0.18975,0.20028 -0.18975,-0.20028 m -8.53858,1.60223 c -0.317921,1.06333 -0.813061,1.6251 -1.707711,2.20313 0.97009,0.76978 1.50128,1.52839 1.707711,2.80399 h 0.18975 l 1.70772,-2.80399 -1.89747,-2.20313 m -10.246285,3.6052 0.189746,0.20028 -0.189746,-0.20028 m 0,0.40056 v 0.60086 h 0.189746 l -0.189746,-0.60086 m 22.579785,1.40199 -0.18974,2.40342 h 0.18974 v -2.40342 m -24.477246,0.20029 v 1.60227 h 0.189746 l -0.189746,-1.60227 m 12.143746,2.80398 c -0.351501,1.70916 -1.191201,2.6372 -2.656441,3.40483 1.61306,1.0834 2.33923,2.2165 2.656441,4.20597 h 0.18975 c 0.14016,-2.03389 1.02069,-3.20325 2.65645,-4.20597 -1.60604,-0.75073 -2.28261,-1.6845 -2.8462,-3.40483 m -9.866793,0.60085 0.189746,0.20029 -0.189746,-0.20029 m 21.631053,1.20171 v 0.80113 h 0.18975 l -0.18975,-0.80113 m -1.89746,1.60222 v 0.60086 h -0.18974 l 0.18974,-0.60086 m -19.164355,0.20029 v 0.60085 h -0.189746 l 0.189746,-0.60085 m 21.061815,0.40057 -0.37949,2.20312 h -0.18975 l 0.56924,-2.20312 m -22.959276,0.20028 0.189747,1.40199 h -0.189747 v -1.40199 m 2.087208,0.40057 v 0.60085 h 0.189746 l -0.189746,-0.60085 m 18.721618,0.13353 -0.0633,0.13351 0.0633,-0.13351 m 0.82223,0.26704 v 0.60085 h 0.18975 l -0.18975,-0.60085 m -20.682325,0.20028 v 0.60085 h 0.189746 l -0.189746,-0.60085 m 1.707715,0.20029 0.37949,1.80255 h 0.18975 l -0.56924,-1.80255 m 17.2669,0 -0.3795,1.60227 h 0.18975 l 0.18975,-1.60227 m -19.607104,0.53405 -0.06324,0.13352 0.06324,-0.13352 m 21.125064,-0.13353 -0.18974,1.60228 h 0.18974 v -1.60228 m 0.94873,0.60086 v 0.60085 h -0.18974 l 0.18974,-0.60085 m -21.884048,0.33381 -0.06324,0.13351 0.06324,-0.13351 m 0.252997,0.66765 -0.189746,0.20028 0.189746,-0.20028 m 21.441311,0 -0.18975,0.20028 0.18975,-0.20028 m -21.251565,0.60085 -0.189746,0.20029 0.189746,-0.20029 m 21.061815,0 -0.18974,0.20029 0.18974,-0.20029 m -1.39147,0.5341 -0.0632,0.13351 0.0632,-0.13351 m -18.215627,0.6008 -0.06325,0.13351 0.06325,-0.13351 m 18.025887,0 -0.0633,0.13351 0.0633,-0.13351 m -17.20365,0.0668 -0.18975,0.20028 0.18975,-0.20028 m 0.94873,0.80113 0.18974,0.20029 -0.18974,-0.20029 m 0.253,0.5341 0.0632,0.13352 -0.0632,-0.13352 m 6.7676,-0.13353 -1.328221,1.60228 v 0.20028 l 1.328221,2.00285 h 0.18975 l 1.32822,-2.00285 v -0.20028 l -1.51797,-1.60228 m 7.02061,0 -0.18975,0.80114 h 0.18975 v -0.80114 m 1.83422,0.5341 -0.0633,0.13351 0.0633,-0.13351 m -17.203654,0.0668 -0.189746,0.20028 0.189746,-0.20028 m 15.938674,0 -0.18975,0.20028 0.18975,-0.20028 m -15.812179,0.53409 -0.06324,0.13352 0.06324,-0.13352 m 0.252999,0.46735 -0.18975,0.20028 0.18975,-0.20028 m 16.50791,0 -0.18975,0.20028 0.18975,-0.20028 m -16.31817,0.40057 -0.18974,0.20028 0.18974,-0.20028 m 16.12842,0 -0.18974,0.20028 0.18974,-0.20028 m -15.93867,0.40057 -0.18975,0.20028 0.18975,-0.20028 m 15.74893,0 -0.18975,0.20028 0.18975,-0.20028 m -15.55918,0.40056 -0.18975,0.20029 0.18975,-0.20029 m 15.36943,0 -0.18975,0.20029 0.18975,-0.20029 m -15.74893,0.20029 -0.18974,0.20028 0.18974,-0.20028 m 0.56924,0.20028 -0.18974,0.20029 0.18974,-0.20029 m -0.37949,0.20029 0.37949,0.80113 h -0.18974 l -0.18975,-0.80113 m 0.56924,0.20028 -0.18975,0.20029 0.18975,-0.20029 m 0.18974,0.40057 0.18975,0.40057 -0.18975,-0.40057 m 0.3795,0.60085 -0.18975,0.20029 0.18975,-0.20029 m 1.264969,0.13353 -0.0632,0.13351 0.0632,-0.13351 m 12.207001,-0.13353 -0.18975,0.20029 0.18975,-0.20029 m -2.27695,1.40199 -0.18975,0.20029 0.18975,-0.20029 m -0.18975,0.60086 -0.18975,0.20028 0.18975,-0.20028 m -8.538571,0.20028 -0.18975,0.20028 0.18975,-0.20028"
       id="path117846" /></g></svg>
